  0
SECTION
  2
HEADER
  9
$ACADVER
  1
AC1015
  9
$ACADMAINTVER
 70
     6
  9
$DWGCODEPAGE
  3
ANSI_1252
  9
$INSBASE
 10
0.0
 20
0.0
 30
0.0
  9
$EXTMIN
 10
0.0
 20
-1.2656142526
 30
0.0
  9
$EXTMAX
 10
9.743916017
 20
3.2254387652
 30
0.0
  9
$LIMMIN
 10
0.0
 20
0.0
  9
$LIMMAX
 10
12.0
 20
9.0
  9
$ORTHOMODE
 70
     0
  9
$REGENMODE
 70
     1
  9
$FILLMODE
 70
     1
  9
$QTEXTMODE
 70
     0
  9
$MIRRTEXT
 70
     1
  9
$LTSCALE
 40
1.0
  9
$ATTMODE
 70
     1
  9
$TEXTSIZE
 40
0.1377952756
  9
$TRACEWID
 40
0.05
  9
$TEXTSTYLE
  7
Standard
  9
$CLAYER
  8
0
  9
$CELTYPE
  6
ByLayer
  9
$CECOLOR
 62
   256
  9
$CELTSCALE
 40
1.0
  9
$DISPSILH
 70
     0
  9
$DIMSCALE
 40
1.0
  9
$DIMASZ
 40
0.13
  9
$DIMEXO
 40
0.0393700787
  9
$DIMDLI
 40
0.38
  9
$DIMRND
 40
0.0
  9
$DIMDLE
 40
0.0
  9
$DIMEXE
 40
0.0393700787
  9
$DIMTP
 40
0.0
  9
$DIMTM
 40
0.0
  9
$DIMTXT
 40
0.1377952756
  9
$DIMCEN
 40
0.09
  9
$DIMTSZ
 40
0.0
  9
$DIMTOL
 70
     0
  9
$DIMLIM
 70
     0
  9
$DIMTIH
 70
     1
  9
$DIMTOH
 70
     1
  9
$DIMSE1
 70
     0
  9
$DIMSE2
 70
     0
  9
$DIMTAD
 70
     1
  9
$DIMZIN
 70
     0
  9
$DIMBLK
  1

  9
$DIMASO
 70
     1
  9
$DIMSHO
 70
     1
  9
$DIMPOST
  1

  9
$DIMAPOST
  1

  9
$DIMALT
 70
     0
  9
$DIMALTD
 70
     2
  9
$DIMALTF
 40
25.4
  9
$DIMLFAC
 40
1.0
  9
$DIMTOFL
 70
     0
  9
$DIMTVP
 40
0.0
  9
$DIMTIX
 70
     0
  9
$DIMSOXD
 70
     0
  9
$DIMSAH
 70
     0
  9
$DIMBLK1
  1

  9
$DIMBLK2
  1

  9
$DIMSTYLE
  2
Standard
  9
$DIMCLRD
 70
     0
  9
$DIMCLRE
 70
     0
  9
$DIMCLRT
 70
     0
  9
$DIMTFAC
 40
1.0
  9
$DIMGAP
 40
0.06
  9
$DIMJUST
 70
     0
  9
$DIMSD1
 70
     0
  9
$DIMSD2
 70
     0
  9
$DIMTOLJ
 70
     1
  9
$DIMTZIN
 70
     0
  9
$DIMALTZ
 70
     0
  9
$DIMALTTZ
 70
     0
  9
$DIMUPT
 70
     0
  9
$DIMDEC
 70
     2
  9
$DIMTDEC
 70
     2
  9
$DIMALTU
 70
     2
  9
$DIMALTTD
 70
     2
  9
$DIMTXSTY
  7
Standard
  9
$DIMAUNIT
 70
     0
  9
$DIMADEC
 70
     2
  9
$DIMALTRND
 40
0.0
  9
$DIMAZIN
 70
     0
  9
$DIMDSEP
 70
    46
  9
$DIMATFIT
 70
     3
  9
$DIMFRAC
 70
     0
  9
$DIMLDRBLK
  1

  9
$DIMLUNIT
 70
     2
  9
$DIMLWD
 70
    -2
  9
$DIMLWE
 70
    -2
  9
$DIMTMOVE
 70
     0
  9
$LUNITS
 70
     2
  9
$LUPREC
 70
     2
  9
$SKETCHINC
 40
0.1
  9
$FILLETRAD
 40
0.5
  9
$AUNITS
 70
     0
  9
$AUPREC
 70
     2
  9
$MENU
  1
.
  9
$ELEVATION
 40
0.0
  9
$PELEVATION
 40
0.0
  9
$THICKNESS
 40
0.0
  9
$LIMCHECK
 70
     0
  9
$CHAMFERA
 40
0.5
  9
$CHAMFERB
 40
0.5
  9
$CHAMFERC
 40
1.0
  9
$CHAMFERD
 40
0.0
  9
$SKPOLY
 70
     0
  9
$TDCREATE
 40
2456840.413048333
  9
$TDUCREATE
 40
2456840.579715
  9
$TDUPDATE
 40
2456840.413260567
  9
$TDUUPDATE
 40
2456840.579927234
  9
$TDINDWG
 40
0.0000000116
  9
$TDUSRTIMER
 40
0.0000000116
  9
$USRTIMER
 70
     1
  9
$ANGBASE
 50
0.0
  9
$ANGDIR
 70
     0
  9
$PDMODE
 70
     0
  9
$PDSIZE
 40
-1.0
  9
$PLINEWID
 40
0.0
  9
$SPLFRAME
 70
     0
  9
$SPLINETYPE
 70
     6
  9
$SPLINESEGS
 70
     8
  9
$HANDSEED
  5
AF
  9
$SURFTAB1
 70
     6
  9
$SURFTAB2
 70
     6
  9
$SURFTYPE
 70
     6
  9
$SURFU
 70
     6
  9
$SURFV
 70
     6
  9
$UCSBASE
  2

  9
$UCSNAME
  2

  9
$UCSORG
 10
0.0
 20
0.0
 30
0.0
  9
$UCSXDIR
 10
1.0
 20
0.0
 30
0.0
  9
$UCSYDIR
 10
0.0
 20
1.0
 30
0.0
  9
$UCSORTHOREF
  2

  9
$UCSORTHOVIEW
 70
     0
  9
$UCSORGTOP
 10
0.0
 20
0.0
 30
0.0
  9
$UCSORGBOTTOM
 10
0.0
 20
0.0
 30
0.0
  9
$UCSORGLEFT
 10
0.0
 20
0.0
 30
0.0
  9
$UCSORGRIGHT
 10
0.0
 20
0.0
 30
0.0
  9
$UCSORGFRONT
 10
0.0
 20
0.0
 30
0.0
  9
$UCSORGBACK
 10
0.0
 20
0.0
 30
0.0
  9
$PUCSBASE
  2

  9
$PUCSNAME
  2

  9
$PUCSORG
 10
0.0
 20
0.0
 30
0.0
  9
$PUCSXDIR
 10
1.0
 20
0.0
 30
0.0
  9
$PUCSYDIR
 10
0.0
 20
1.0
 30
0.0
  9
$PUCSORTHOREF
  2

  9
$PUCSORTHOVIEW
 70
     0
  9
$PUCSORGTOP
 10
0.0
 20
0.0
 30
0.0
  9
$PUCSORGBOTTOM
 10
0.0
 20
0.0
 30
0.0
  9
$PUCSORGLEFT
 10
0.0
 20
0.0
 30
0.0
  9
$PUCSORGRIGHT
 10
0.0
 20
0.0
 30
0.0
  9
$PUCSORGFRONT
 10
0.0
 20
0.0
 30
0.0
  9
$PUCSORGBACK
 10
0.0
 20
0.0
 30
0.0
  9
$USERI1
 70
     0
  9
$USERI2
 70
     0
  9
$USERI3
 70
     0
  9
$USERI4
 70
     0
  9
$USERI5
 70
     0
  9
$USERR1
 40
0.0
  9
$USERR2
 40
0.0
  9
$USERR3
 40
0.0
  9
$USERR4
 40
0.0
  9
$USERR5
 40
0.0
  9
$WORLDVIEW
 70
     1
  9
$SHADEDGE
 70
     3
  9
$SHADEDIF
 70
    70
  9
$TILEMODE
 70
     1
  9
$MAXACTVP
 70
    64
  9
$PINSBASE
 10
0.0
 20
0.0
 30
0.0
  9
$PLIMCHECK
 70
     0
  9
$PEXTMIN
 10
1.0000000000E+20
 20
1.0000000000E+20
 30
1.0000000000E+20
  9
$PEXTMAX
 10
-1.0000000000E+20
 20
-1.0000000000E+20
 30
-1.0000000000E+20
  9
$PLIMMIN
 10
0.0
 20
0.0
  9
$PLIMMAX
 10
12.0
 20
9.0
  9
$UNITMODE
 70
     0
  9
$VISRETAIN
 70
     1
  9
$PLINEGEN
 70
     0
  9
$PSLTSCALE
 70
     1
  9
$TREEDEPTH
 70
  3020
  9
$CMLSTYLE
  2
Standard
  9
$CMLJUST
 70
     0
  9
$CMLSCALE
 40
1.0
  9
$PROXYGRAPHICS
 70
     1
  9
$MEASUREMENT
 70
     0
  9
$CELWEIGHT
370
    -1
  9
$ENDCAPS
280
     0
  9
$JOINSTYLE
280
     0
  9
$LWDISPLAY
290
     1
  9
$INSUNITS
 70
     1
  9
$HYPERLINKBASE
  1

  9
$STYLESHEET
  1

  9
$XEDIT
290
     1
  9
$CEPSNTYPE
380
     0
  9
$PSTYLEMODE
290
     1
  9
$FINGERPRINTGUID
  2
{F2ADF236-6047-46A3-BBE9-327548513153}
  9
$VERSIONGUID
  2
{FAEB1C32-E019-11D5-929B-00C0DF256EC4}
  9
$EXTNAMES
290
     1
  9
$PSVPSCALE
 40
0.0
  9
$OLESTARTUP
290
     0
  0
ENDSEC
  0
SECTION
  2
CLASSES
  0
CLASS
  1
ACDBDICTIONARYWDFLT
  2
AcDbDictionaryWithDefault
  3
ObjectDBX Classes
 90
        0
280
     0
281
     0
  0
CLASS
  1
VISUALSTYLE
  2
AcDbVisualStyle
  3
ObjectDBX Classes
 90
     4095
280
     0
281
     0
  0
CLASS
  1
MATERIAL
  2
AcDbMaterial
  3
ObjectDBX Classes
 90
     1153
280
     0
281
     0
  0
CLASS
  1
SCALE
  2
AcDbScale
  3
ObjectDBX Classes
 90
     1153
280
     0
281
     0
  0
CLASS
  1
DICTIONARYVAR
  2
AcDbDictionaryVar
  3
ObjectDBX Classes
 90
        0
280
     0
281
     0
  0
CLASS
  1
ACDBPLACEHOLDER
  2
AcDbPlaceHolder
  3
ObjectDBX Classes
 90
        0
280
     0
281
     0
  0
CLASS
  1
LAYOUT
  2
AcDbLayout
  3
ObjectDBX Classes
 90
        0
280
     0
281
     0
  0
ENDSEC
  0
SECTION
  2
TABLES
  0
TABLE
  2
VPORT
  5
8
330
0
100
AcDbSymbolTable
 70
     1
  0
VPORT
  5
29
330
8
100
AcDbSymbolTableRecord
100
AcDbViewportTableRecord
  2
*Active
 70
     0
 10
0.0
 20
0.0
 11
1.0
 21
1.0
 12
4.8719580085
 22
0.9799122563
 13
0.0
 23
0.0
 14
0.5
 24
0.5
 15
0.5
 25
0.5
 16
0.0
 26
0.0
 36
1.0
 17
0.0
 27
0.0
 37
0.0
 40
4.5808740782
 41
2.1696283652
 42
50.0
 43
0.0
 44
0.0
 50
0.0
 51
0.0
 71
     0
 72
   100
 73
     1
 74
     3
 75
     0
 76
     0
 77
     0
 78
     0
281
     0
 65
     1
110
0.0
120
0.0
130
0.0
111
1.0
121
0.0
131
0.0
112
0.0
122
1.0
132
0.0
 79
     0
146
0.0
  0
ENDTAB
  0
TABLE
  2
LTYPE
  5
5
330
0
100
AcDbSymbolTable
 70
     6
  0
LTYPE
  5
14
330
5
100
AcDbSymbolTableRecord
100
AcDbLinetypeTableRecord
  2
ByBlock
 70
     0
  3

 72
    65
 73
     0
 40
0.0
  0
LTYPE
  5
15
330
5
100
AcDbSymbolTableRecord
100
AcDbLinetypeTableRecord
  2
ByLayer
 70
     0
  3

 72
    65
 73
     0
 40
0.0
  0
LTYPE
  5
16
330
5
100
AcDbSymbolTableRecord
100
AcDbLinetypeTableRecord
  2
Continuous
 70
     0
  3
Solid line
 72
    65
 73
     0
 40
0.0
  0
LTYPE
  5
3F
330
5
100
AcDbSymbolTableRecord
100
AcDbLinetypeTableRecord
  2
HIDDEN
 70
     0
  3
Hidden __ __ __ __ __ __ __ __ __ __ __ __ __ __
 72
    65
 73
     2
 40
0.075
 49
0.05
 74
     0
 49
-0.025
 74
     0
  0
LTYPE
  5
40
330
5
100
AcDbSymbolTableRecord
100
AcDbLinetypeTableRecord
  2
PHANTOM
 70
     0
  3
Phantom ______  __  __  ______  __  __  ______
 72
    65
 73
     6
 40
0.5
 49
0.25
 74
     0
 49
-0.05
 74
     0
 49
0.05
 74
     0
 49
-0.05
 74
     0
 49
0.05
 74
     0
 49
-0.05
 74
     0
  0
LTYPE
  5
41
330
5
100
AcDbSymbolTableRecord
100
AcDbLinetypeTableRecord
  2
CENTER
 70
     0
  3
Center ____ _ ____ _ ____ _ ____ _ ____ _ ____
 72
    65
 73
     4
 40
0.4
 49
0.25
 74
     0
 49
-0.05
 74
     0
 49
0.05
 74
     0
 49
-0.05
 74
     0
  0
LTYPE
  5
42
330
5
100
AcDbSymbolTableRecord
100
AcDbLinetypeTableRecord
  2
CENTERX2
 70
     0
  3
Center (2x) ________  __  ________  __  _____
 72
    65
 73
     4
 40
0.8
 49
0.5
 74
     0
 49
-0.1
 74
     0
 49
0.1
 74
     0
 49
-0.1
 74
     0
  0
LTYPE
  5
43
330
5
100
AcDbSymbolTableRecord
100
AcDbLinetypeTableRecord
  2
DOT2
 70
     0
  3
Dot (.5x) ........................................
 72
    65
 73
     2
 40
0.025
 49
0.0
 74
     0
 49
-0.025
 74
     0
  0
ENDTAB
  0
TABLE
  2
LAYER
  5
2
330
0
100
AcDbSymbolTable
 70
     1
  0
LAYER
  5
10
330
2
100
AcDbSymbolTableRecord
100
AcDbLayerTableRecord
  2
0
 70
     0
 62
     7
  6
Continuous
370
    -3
390
F
  0
ENDTAB
  0
TABLE
  2
STYLE
  5
3
330
0
100
AcDbSymbolTable
 70
     1
  0
STYLE
  5
11
330
3
100
AcDbSymbolTableRecord
100
AcDbTextStyleTableRecord
  2
Standard
 70
     0
 40
0.0
 41
1.0
 50
0.0
 71
     0
 42
0.1377952756
  3
txt
  4

  0
ENDTAB
  0
TABLE
  2
VIEW
  5
6
330
0
100
AcDbSymbolTable
 70
     0
  0
ENDTAB
  0
TABLE
  2
UCS
  5
7
330
0
100
AcDbSymbolTable
 70
     0
  0
ENDTAB
  0
TABLE
  2
APPID
  5
9
330
0
100
AcDbSymbolTable
 70
     1
  0
APPID
  5
12
330
9
100
AcDbSymbolTableRecord
100
AcDbRegAppTableRecord
  2
ACAD
 70
     0
  0
ENDTAB
  0
TABLE
  2
DIMSTYLE
  5
A
330
0
100
AcDbSymbolTable
 70
     1
100
AcDbDimStyleTable
  0
DIMSTYLE
105
27
330
A
100
AcDbSymbolTableRecord
100
AcDbDimStyleTableRecord
  2
Standard
 70
     0
178
     0
340
11
  0
ENDTAB
  0
TABLE
  2
BLOCK_RECORD
  5
1
330
0
100
AcDbSymbolTable
 70
     1
  0
BLOCK_RECORD
  5
1F
330
1
100
AcDbSymbolTableRecord
100
AcDbBlockTableRecord
  2
*Model_Space
340
22
  0
BLOCK_RECORD
  5
1B
330
1
100
AcDbSymbolTableRecord
100
AcDbBlockTableRecord
  2
*Paper_Space
340
1E
  0
BLOCK_RECORD
  5
23
330
1
100
AcDbSymbolTableRecord
100
AcDbBlockTableRecord
  2
*Paper_Space0
340
26
  0
ENDTAB
  0
ENDSEC
  0
SECTION
  2
BLOCKS
  0
BLOCK
  5
20
330
1F
100
AcDbEntity
  8
0
100
AcDbBlockBegin
  2
*Model_Space
 70
     0
 10
0.0
 20
0.0
 30
0.0
  3
*Model_Space
  1

  0
ENDBLK
  5
21
330
1F
100
AcDbEntity
  8
0
100
AcDbBlockEnd
  0
BLOCK
  5
1C
330
1B
100
AcDbEntity
 67
     1
  8
0
100
AcDbBlockBegin
  2
*Paper_Space
 70
     0
 10
0.0
 20
0.0
 30
0.0
  3
*Paper_Space
  1

  0
ENDBLK
  5
1D
330
1B
100
AcDbEntity
 67
     1
  8
0
100
AcDbBlockEnd
  0
BLOCK
  5
24
330
23
100
AcDbEntity
  8
0
100
AcDbBlockBegin
  2
*Paper_Space0
 70
     0
 10
0.0
 20
0.0
 30
0.0
  3
*Paper_Space0
  1

  0
ENDBLK
  5
25
330
23
100
AcDbEntity
  8
0
100
AcDbBlockEnd
  0
ENDSEC
  0
SECTION
  2
ENTITIES
  0
LWPOLYLINE
  5
44
330
1F
100
AcDbEntity
  8
0
  6
CENTERX2
 62
     7
100
AcDbPolyline
 90
       17
 70
   128
 43
0.0
 10
6.9367726763
 20
-0.9789383014
 10
6.9256993274
 20
-0.9347661549
 10
6.8783812758
 20
-0.895888287
 10
6.802022266
 20
-0.8682235007
 10
6.708247265
 20
-0.855983509
 10
6.6113326667
 20
-0.8610317395
 10
6.52603284
 20
-0.8825996451
 10
6.4653339103
 20
-0.9174037074
 10
6.4384767396
 20
-0.9601453237
 10
6.4495500885
 20
-1.0043174702
 10
6.49686814
 20
-1.043195338
 10
6.5732271498
 20
-1.0708601243
 10
6.6670021508
 20
-1.0831001161
 10
6.7639167492
 20
-1.0780518855
 10
6.8492165759
 20
-1.05648398
 10
6.9099155055
 20
-1.0216799176
 10
6.9367726763
 20
-0.9789383014
  0
LWPOLYLINE
  5
45
330
1F
100
AcDbEntity
  8
0
  6
CENTERX2
 62
     7
100
AcDbPolyline
 90
       17
 70
   128
 43
0.0
 10
0.8987423695
 20
0.1179273842
 10
0.8876690206
 20
0.1620995307
 10
0.8403509691
 20
0.2009773986
 10
0.7639919593
 20
0.2286421849
 10
0.6702169583
 20
0.2408821766
 10
0.5733023599
 20
0.2358339461
 10
0.4880025332
 20
0.2142660406
 10
0.4273036036
 20
0.1794619782
 10
0.4004464328
 20
0.1367203619
 10
0.4115197817
 20
0.0925482154
 10
0.4588378332
 20
0.0536703476
 10
0.535196843
 20
0.0260055613
 10
0.628971844
 20
0.0137655695
 10
0.7258864424
 20
0.0188138001
 10
0.8111862691
 20
0.0403817056
 10
0.8718851987
 20
0.075185768
 10
0.8987423695
 20
0.1179273842
  0
LWPOLYLINE
  5
46
330
1F
100
AcDbEntity
  8
0
  6
CENTERX2
 62
     7
100
AcDbPolyline
 90
       17
 70
   128
 43
0.0
 10
9.3434695842
 20
1.7731377343
 10
9.3323962353
 20
1.8173098808
 10
9.2850781838
 20
1.8561877487
 10
9.208719174
 20
1.883852535
 10
9.114944173
 20
1.8960925267
 10
9.0180295746
 20
1.8910442962
 10
8.9327297479
 20
1.8694763906
 10
8.8720308183
 20
1.8346723283
 10
8.8451736475
 20
1.791930712
 10
8.8562469964
 20
1.7477585655
 10
8.903565048
 20
1.7088806977
 10
8.9799240578
 20
1.6812159114
 10
9.0736990588
 20
1.6689759196
 10
9.1706136571
 20
1.6740241502
 10
9.2559134838
 20
1.6955920557
 10
9.3166124134
 20
1.7303961181
 10
9.3434695842
 20
1.7731377343
  0
LWPOLYLINE
  5
47
330
1F
100
AcDbEntity
  8
0
  6
CENTERX2
 62
     7
100
AcDbPolyline
 90
       17
 70
   128
 43
0.0
 10
3.3054392774
 20
2.87000342
 10
3.2943659286
 20
2.9141755664
 10
3.247047877
 20
2.9530534343
 10
3.1706888672
 20
2.9807182206
 10
3.0769138662
 20
2.9929582123
 10
2.9799992678
 20
2.9879099818
 10
2.8946994412
 20
2.9663420763
 10
2.8340005115
 20
2.9315380139
 10
2.8071433408
 20
2.8887963976
 10
2.8182166896
 20
2.8446242511
 10
2.8655347412
 20
2.8057463833
 10
2.941893751
 20
2.778081597
 10
3.035668752
 20
2.7658416052
 10
3.1325833504
 20
2.7708898358
 10
3.217883177
 20
2.7924577413
 10
3.2785821067
 20
2.8272618037
 10
3.3054392774
 20
2.87000342
  0
LWPOLYLINE
  5
48
330
1F
100
AcDbEntity
  8
0
  6
Continuous
 62
     7
100
AcDbPolyline
 90
        9
 70
   128
 43
0.0
 10
7.0824037855
 20
-0.904536952
 10
7.0463428999
 20
-0.9586314258
 10
6.9821760329
 20
-1.0070156667
 10
6.8938522862
 20
-1.0467119027
 10
6.7868074787
 20
-1.0752770586
 10
6.6676296031
 20
-1.0909531134
 10
6.5436533725
 20
-1.0927752959
 10
6.4225088112
 20
-1.0806314614
 10
6.3116516707
 20
-1.0552689929
  0
LWPOLYLINE
  5
49
330
1F
100
AcDbEntity
  8
0
  6
Continuous
 62
     7
100
AcDbPolyline
 90
        9
 70
   128
 43
0.0
 10
8.9507360431
 20
1.9625438581
 10
9.0692836112
 20
1.9461057352
 10
9.1753208576
 20
1.9168848857
 10
9.2623352002
 20
1.8766759919
 10
9.3249824031
 20
1.8279485986
 10
9.3594148085
 20
1.7736954388
 10
9.363517651
 20
1.717248626
 10
9.337038943
 20
1.6620750034
 10
9.2816049504
 20
1.6115632176
  0
LWPOLYLINE
  5
4A
330
1F
100
AcDbEntity
  8
0
  6
Continuous
 62
     7
100
AcDbPolyline
 90
        9
 70
   128
 43
0.0
 10
2.6613436745
 20
2.8139503976
 10
2.697412276
 20
2.8679831155
 10
2.7615260436
 20
2.9163141389
 10
2.8497472442
 20
2.9559750778
 10
2.9566575163
 20
2.9845300403
 10
3.0756906551
 20
3.0002252405
 10
3.1995358945
 20
3.002096712
 10
3.3205869195
 20
2.990029513
 10
3.4314090297
 20
2.9647647856
  0
LWPOLYLINE
  5
4B
330
1F
100
AcDbEntity
  8
0
  6
Continuous
 62
     7
100
AcDbPolyline
 90
        9
 70
   128
 43
0.0
 10
0.4628610839
 20
0.2986699482
 10
0.4074250077
 20
0.2481442772
 10
0.3809586486
 20
0.1929562772
 10
0.3850882536
 20
0.1364970196
 10
0.4195600756
 20
0.0822356892
 10
0.4822559658
 20
0.0335064174
 10
0.5693235242
 20
-0.0066965863
 10
0.6754128144
 20
-0.0359030157
 10
0.7940050939
 20
-0.0523182581
  0
LWPOLYLINE
  5
4C
330
1F
100
AcDbEntity
  8
0
  6
Continuous
 62
     7
100
AcDbPolyline
 90
       17
 70
   128
 43
0.0
 10
3.1808652933
 20
2.8747016644
 10
3.1753286188
 20
2.8967877376
 10
3.1516695931
 20
2.9162266715
 10
3.1134900882
 20
2.9300590647
 10
3.0666025877
 20
2.9361790606
 10
3.0181452885
 20
2.9336549453
 10
2.9754953751
 20
2.9228709925
 10
2.9451459103
 20
2.9054689613
 10
2.9317173249
 20
2.8840981532
 10
2.9372539994
 20
2.86201208
 10
2.9609130251
 20
2.842573146
 10
2.99909253
 20
2.8287407529
 10
3.0459800305
 20
2.822620757
 10
3.0944373297
 20
2.8251448723
 10
3.1370872431
 20
2.8359288251
 10
3.1674367079
 20
2.8533308562
 10
3.1808652933
 20
2.8747016644
  0
LWPOLYLINE
  5
4D
330
1F
100
AcDbEntity
  8
0
  6
Continuous
 62
     7
100
AcDbPolyline
 90
       17
 70
   128
 43
0.0
 10
0.7741683853
 20
0.1226256287
 10
0.7686317109
 20
0.1447117019
 10
0.7449726851
 20
0.1641506358
 10
0.7067931802
 20
0.177983029
 10
0.6599056797
 20
0.1841030249
 10
0.6114483805
 20
0.1815789096
 10
0.5687984672
 20
0.1707949568
 10
0.5384490024
 20
0.1533929256
 10
0.525020417
 20
0.1320221175
 10
0.5305570914
 20
0.1099360443
 10
0.5542161172
 20
0.0904971103
 10
0.5923956221
 20
0.0766647172
 10
0.6392831226
 20
0.0705447213
 10
0.6877404218
 20
0.0730688366
 10
0.7303903351
 20
0.0838527894
 10
0.7607397999
 20
0.1012548205
 10
0.7741683853
 20
0.1226256287
  0
LWPOLYLINE
  5
4E
330
1F
100
AcDbEntity
  8
0
  6
Continuous
 62
     7
100
AcDbPolyline
 90
       17
 70
   128
 43
0.0
 10
6.8121986921
 20
-0.9742400569
 10
6.8066620176
 20
-0.9521539837
 10
6.7830029919
 20
-0.9327150498
 10
6.744823487
 20
-0.9188826566
 10
6.6979359865
 20
-0.9127626608
 10
6.6494786873
 20
-0.915286776
 10
6.6068287739
 20
-0.9260707288
 10
6.5764793091
 20
-0.94347276
 10
6.5630507237
 20
-0.9648435681
 10
6.5685873982
 20
-0.9869296414
 10
6.592246424
 20
-1.0063685753
 10
6.6304259289
 20
-1.0202009684
 10
6.6773134294
 20
-1.0263209643
 10
6.7257707285
 20
-1.023796849
 10
6.7684206419
 20
-1.0130128963
 10
6.7987701067
 20
-0.9956108651
 10
6.8121986921
 20
-0.9742400569
  0
LWPOLYLINE
  5
4F
330
1F
100
AcDbEntity
  8
0
  6
Continuous
 62
     7
100
AcDbPolyline
 90
       17
 70
   128
 43
0.0
 10
9.2188956
 20
1.7778359788
 10
9.2133589256
 20
1.799922052
 10
9.1896998998
 20
1.8193609859
 10
9.1515203949
 20
1.8331933791
 10
9.1046328944
 20
1.839313375
 10
9.0561755953
 20
1.8367892597
 10
9.0135256819
 20
1.8260053069
 10
8.9831762171
 20
1.8086032757
 10
8.9697476317
 20
1.7872324676
 10
8.9752843061
 20
1.7651463944
 10
8.9989433319
 20
1.7457074604
 10
9.0371228368
 20
1.7318750673
 10
9.0840103373
 20
1.7257550714
 10
9.1324676365
 20
1.7282791867
 10
9.1751175498
 20
1.7390631394
 10
9.2054670147
 20
1.7564651706
 10
9.2188956
 20
1.7778359788
  0
LWPOLYLINE
  5
50
330
1F
100
AcDbEntity
  8
0
  6
Continuous
 62
     7
100
AcDbPolyline
 90
       17
 70
   128
 43
0.0
 10
4.9965319927
 20
0.9502308037
 10
4.9909953182
 20
0.972316877
 10
4.9673362925
 20
0.9917558109
 10
4.9291567876
 20
1.005588204
 10
4.8822692871
 20
1.0117081999
 10
4.8338119879
 20
1.0091840846
 10
4.7911620745
 20
0.9984001319
 10
4.7608126097
 20
0.9809981007
 10
4.7473840243
 20
0.9596272926
 10
4.7529206988
 20
0.9375412193
 10
4.7765797245
 20
0.9181022854
 10
4.8147592294
 20
0.9042698922
 10
4.8616467299
 20
0.8981498964
 10
4.9101040291
 20
0.9006740116
 10
4.9527539425
 20
0.9114579644
 10
4.9831034073
 20
0.9288599956
 10
4.9965319927
 20
0.9502308037
  0
LINE
  5
51
330
1F
100
AcDbEntity
  8
0
  6
CENTERX2
 62
     7
100
AcDbLine
 10
6.2604369939
 20
2.5426652226
 30
0.0
 11
3.4834790231
 21
-0.6328071263
 31
0.0
  0
LINE
  5
52
330
1F
100
AcDbEntity
  8
0
  6
Continuous
 62
     7
100
AcDbLine
 10
0.0
 20
0.0
 30
0.0
 11
6.9669580463
 21
-1.2656142526
 31
0.0
  0
LINE
  5
53
330
1F
100
AcDbEntity
  8
0
  6
Continuous
 62
     7
100
AcDbLine
 10
0.0
 20
0.0
 30
0.0
 11
2.7769579707
 21
3.1754723489
 31
0.0
  0
LINE
  5
54
330
1F
100
AcDbEntity
  8
0
  6
Continuous
 62
     7
100
AcDbLine
 10
2.7769579707
 20
3.1754723489
 30
0.0
 11
9.743916017
 21
1.9098580963
 31
0.0
  0
LINE
  5
55
330
1F
100
AcDbEntity
  8
0
  6
Continuous
 62
     7
100
AcDbLine
 10
6.9669580463
 20
-1.2656142526
 30
0.0
 11
9.743916017
 21
1.9098580963
 31
0.0
  0
LINE
  5
56
330
1F
100
AcDbEntity
  8
0
  6
Continuous
 62
     7
100
AcDbLine
 10
2.7769579707
 20
3.1754723489
 30
0.0
 11
3.2414218405
 21
3.0910980654
 31
0.0
  0
LINE
  5
57
330
1F
100
AcDbEntity
  8
0
  6
Continuous
 62
     7
100
AcDbLine
 10
2.7769579707
 20
3.1754723489
 30
0.0
 11
2.5918274393
 21
2.9637741923
 31
0.0
  0
LINE
  5
58
330
1F
100
AcDbEntity
  8
0
  6
CENTERX2
 62
     7
100
AcDbLine
 10
2.5918274393
 20
2.9637741923
 30
0.0
 11
3.0562913091
 21
2.8793999088
 31
0.0
  0
LINE
  5
59
330
1F
100
AcDbEntity
  8
0
  6
CENTERX2
 62
     7
100
AcDbLine
 10
3.2414218405
 20
3.0910980654
 30
0.0
 11
3.0562913091
 21
2.8793999088
 31
0.0
  0
LINE
  5
5A
330
1F
100
AcDbEntity
  8
0
  6
CENTERX2
 62
     7
100
AcDbLine
 10
1.3884789854
 20
1.5877361744
 30
0.0
 11
8.3554370316
 21
0.3221219218
 31
0.0
  0
LINE
  5
5B
330
1F
100
AcDbEntity
  8
0
  6
CENTERX2
 62
     7
100
AcDbLine
 10
9.2794521473
 20
1.9942323798
 30
0.0
 11
9.0943216159
 21
1.7825342232
 31
0.0
  0
LINE
  5
5C
330
1F
100
AcDbEntity
  8
0
  6
CENTERX2
 62
     7
100
AcDbLine
 10
9.5587854856
 20
1.6981599397
 30
0.0
 11
9.0943216159
 21
1.7825342232
 31
0.0
  0
LINE
  5
5D
330
1F
100
AcDbEntity
  8
0
  6
CENTERX2
 62
     7
100
AcDbLine
 10
7.1520885777
 20
-1.053916096
 30
0.0
 11
6.6876247079
 21
-0.9695418125
 31
0.0
  0
LINE
  5
5E
330
1F
100
AcDbEntity
  8
0
  6
CENTERX2
 62
     7
100
AcDbLine
 10
6.5024941765
 20
-1.1812399691
 30
0.0
 11
6.6876247079
 21
-0.9695418125
 31
0.0
  0
LINE
  5
5F
330
1F
100
AcDbEntity
  8
0
  6
CENTERX2
 62
     7
100
AcDbLine
 10
0.4644638698
 20
-0.0843742835
 30
0.0
 11
0.6495944011
 21
0.1273238731
 31
0.0
  0
LINE
  5
60
330
1F
100
AcDbEntity
  8
0
  6
CENTERX2
 62
     7
100
AcDbLine
 10
0.1851305314
 20
0.2116981566
 30
0.0
 11
0.6495944011
 21
0.1273238731
 31
0.0
  0
LINE
  5
61
330
1F
100
AcDbEntity
  8
0
  6
CENTERX2
 62
     7
100
AcDbLine
 10
9.2794521473
 20
1.9942323798
 30
0.0
 11
6.5024941765
 21
-1.1812399691
 31
0.0
  0
LINE
  5
62
330
1F
100
AcDbEntity
  8
0
  6
CENTERX2
 62
     7
100
AcDbLine
 10
2.5918274393
 20
2.9637741923
 30
0.0
 11
9.5587854856
 21
1.6981599397
 31
0.0
  0
LINE
  5
63
330
1F
100
AcDbEntity
  8
0
  6
CENTERX2
 62
     7
100
AcDbLine
 10
0.1851305314
 20
0.2116981566
 30
0.0
 11
7.1520885777
 21
-1.053916096
 31
0.0
  0
LWPOLYLINE
  5
64
330
1F
100
AcDbEntity
  8
0
  6
Continuous
 62
     7
100
AcDbPolyline
 90
        5
 70
   128
 43
0.0
 10
2.661343559
 20
2.8139504186
 10
2.2806930354
 20
2.0674213516
 10
1.716732569
 20
1.3530779535
 10
1.1452962498
 20
0.8146994183
 10
0.4628610839
 20
0.2986699482
  0
LWPOLYLINE
  5
65
330
1F
100
AcDbEntity
  8
0
  6
Continuous
 62
     7
100
AcDbPolyline
 90
        5
 70
   128
 43
0.0
 10
9.2816020295
 20
1.6115637482
 10
8.4319202321
 20
0.9506168026
 10
7.7629029827
 20
0.2544715597
 10
7.3658925214
 20
-0.3150157844
 10
7.0824037855
 20
-0.904536952
  0
LWPOLYLINE
  5
66
330
1F
100
AcDbEntity
  8
0
  6
Continuous
 62
     7
100
AcDbPolyline
 90
        5
 70
   128
 43
0.0
 10
3.431408665
 20
2.9647648519
 10
4.8812568337
 20
2.577545142
 10
6.4083425796
 20
2.2727064778
 10
7.6576024292
 20
2.0918505655
 10
8.9507360431
 20
1.9625438581
  0
LWPOLYLINE
  5
67
330
1F
100
AcDbEntity
  8
0
  6
Continuous
 62
     7
100
AcDbPolyline
 90
        5
 70
   128
 43
0.0
 10
0.7940045741
 20
-0.0523181637
 10
2.4304372684
 20
-0.2259107978
 10
3.9987666206
 20
-0.4832274337
 10
5.1786253666
 20
-0.7432986083
 10
6.3116516707
 20
-1.0552689929
  0
POINT
  5
68
330
1F
100
AcDbEntity
  8
0
  6
Continuous
 62
     7
100
AcDbPoint
 10
1.8529428551
 20
1.5033618909
 30
0.0
  0
POINT
  5
69
330
1F
100
AcDbEntity
  8
0
  6
Continuous
 62
     7
100
AcDbPoint
 10
7.8909731619
 20
0.4064962053
 30
0.0
  0
POINT
  5
6A
330
1F
100
AcDbEntity
  8
0
  6
Continuous
 62
     7
100
AcDbPoint
 10
6.0753064625
 20
2.330967066
 30
0.0
  0
POINT
  5
6B
330
1F
100
AcDbEntity
  8
0
  6
Continuous
 62
     7
100
AcDbPoint
 10
3.6686095545
 20
-0.4211089697
 30
0.0
  0
SPLINE
  5
6E
330
1F
100
AcDbEntity
  8
0
  6
Continuous
 62
     7
370
    15
100
AcDbSpline
210
0.0
220
0.0
230
1.0
 70
     8
 71
     3
 72
     9
 73
     5
 74
     0
 42
0.00000001
 43
0.00000001
 12
1.0
 22
0.0
 32
0.0
 13
1.0
 23
0.0
 33
0.0
 40
0.103948731668706
 40
0.103948731668706
 40
0.103948731668706
 40
0.103948731668706
 40
0.4997049642957373
 40
0.8953851219400528
 40
0.8953851219400528
 40
0.8953851219400528
 40
0.8953851219400528
 10
2.661340319803897
 20
3.036472795814858
 30
0.0
 10
2.489140723558307
 20
2.582302325229764
 30
0.0
 10
1.950782383071365
 20
1.709260280056775
 30
0.0
 10
1.021334694400378
 20
0.9030371014550861
 30
0.0
 10
0.4628577291594911
 20
0.5211923463558951
 30
0.0
  0
LWPOLYLINE
  5
6F
330
1F
100
AcDbEntity
  8
0
  6
Continuous
 62
     7
370
    15
100
AcDbPolyline
 90
       17
 70
   128
 43
0.0
 10
2.6613403198
 20
3.0364727958
 10
2.675688012
 20
3.06400035
 10
2.6974089213
 20
3.0905055137
 10
2.7261682445
 20
3.1155797397
 10
2.7615226889
 20
3.1388365371
 10
2.8029273058
 20
3.1599174286
 10
2.8497438895
 20
3.178497476
 10
2.9012508151
 20
3.1942902887
 10
2.9566541616
 20
3.2070524385
 10
3.0150999486
 20
3.216587211
 10
3.0756873004
 20
3.2227476386
 10
3.137482331
 20
3.2254387652
 10
3.1995325398
 20
3.2246191102
 10
3.2608814927
 20
3.2203013075
 10
3.3205835648
 20
3.2125519112
 10
3.3777185158
 20
3.2014903696
 10
3.431405675
 20
3.1872871838
  0
SPLINE
  5
70
330
1F
100
AcDbEntity
  8
0
  6
Continuous
 62
     7
370
    15
100
AcDbSpline
210
0.0
220
0.0
230
1.0
 70
     8
 71
     3
 72
     9
 73
     5
 74
     0
 42
0.00000001
 43
0.00000001
 12
1.0
 22
0.0
 32
0.0
 13
1.0
 23
0.0
 33
0.0
 40
0.1044853266368139
 40
0.1044853266368139
 40
0.1044853266368139
 40
0.1044853266368139
 40
0.5002954238385606
 40
0.8960514300890737
 40
0.8960514300890737
 40
0.8960514300890737
 40
0.8960514300890737
 10
3.431405674958748
 20
3.187287183815534
 30
0.0
 10
4.269410342676111
 20
2.932639481214097
 30
0.0
 10
6.038508559285248
 20
2.508934724271156
 30
0.0
 10
7.954281364526843
 20
2.263540370651572
 30
0.0
 10
8.950732688347104
 20
2.185066256308809
 30
0.0
  0
LWPOLYLINE
  5
71
330
1F
100
AcDbEntity
  8
0
  6
Continuous
 62
     7
370
    15
100
AcDbPolyline
 90
       17
 70
   128
 43
0.0
 10
8.9507326883
 20
2.1850662563
 10
9.0111281375
 20
2.1785275106
 10
9.0692802565
 20
2.1686281334
 10
9.1242926964
 20
2.1555207125
 10
9.1753175029
 20
2.1394072838
 10
9.2215681865
 20
2.1205362177
 10
9.2623318455
 20
2.0991983901
 10
9.2969801542
 20
2.0757226994
 10
9.3249790484
 20
2.0504709968
 10
9.3458969569
 20
2.0238325087
 10
9.3594114537
 20
1.996217837
 10
9.3653142284
 20
1.9680526306
 10
9.3635142963
 20
1.9397710241
 10
9.3540394014
 20
1.9118089466
 10
9.3370355883
 20
1.8845974016
 10
9.3127649517
 20
1.8585558242
 10
9.2816015957
 20
1.8340856158
  0
SPLINE
  5
72
330
1F
100
AcDbEntity
  8
0
  6
Continuous
 62
     7
370
    15
100
AcDbSpline
210
0.0
220
0.0
230
1.0
 70
     8
 71
     3
 72
     9
 73
     5
 74
     0
 42
0.00000001
 43
0.00000001
 12
1.0
 22
0.0
 32
0.0
 13
1.0
 23
0.0
 33
0.0
 40
0.1044844961748195
 40
0.1044844961748195
 40
0.1044844961748195
 40
0.1044844961748195
 40
0.5002943913825674
 40
0.8961804202963075
 40
0.8961804202963075
 40
0.8961804202963075
 40
0.8961804202963075
 10
9.281601595671999
 20
1.83408561578892
 30
0.0
 10
8.722877045489493
 20
1.452126640065974
 30
0.0
 10
7.793282521757944
 20
0.6456369253685819
 30
0.0
 10
7.254154655737499
 20
-0.2276491485329769
 30
0.0
 10
7.082400430781802
 20
-0.6820145537804133
 30
0.0
  0
LWPOLYLINE
  5
73
330
1F
100
AcDbEntity
  8
0
  6
Continuous
 62
     7
370
    15
100
AcDbPolyline
 90
       17
 70
   128
 43
0.0
 10
7.0824004308
 20
-0.6820145538
 10
7.0680646341
 20
-0.709573406
 10
7.0463395452
 20
-0.7361090276
 10
7.0175607235
 20
-0.7612115572
 10
6.9821726782
 20
-0.7844932685
 10
6.9407220025
 20
-0.805594559
 10
6.8938489315
 20
-0.8241895045
 10
6.8422774527
 20
-0.8399908928
 10
6.786804124
 20
-0.8527546605
 10
6.7282857702
 20
-0.862283662
 10
6.6676262484
 20
-0.8684307152
 10
6.6057624878
 20
-0.8711008747
 10
6.5436500177
 20
-0.8702528978
 10
6.4822482092
 20
-0.8658998821
 10
6.4225054565
 20
-0.8581090632
 10
6.3653445285
 20
-0.8470007756
 10
6.311648316
 20
-0.8327465947
  0
SPLINE
  5
74
330
1F
100
AcDbEntity
  8
0
  6
Continuous
 62
     7
370
    15
100
AcDbSpline
210
0.0
220
0.0
230
1.0
 70
     8
 71
     3
 72
     9
 73
     5
 74
     0
 42
0.00000001
 43
0.00000001
 12
1.0
 22
0.0
 32
0.0
 13
1.0
 23
0.0
 33
0.0
 40
0.1046142085469195
 40
0.1046142085469195
 40
0.1046142085469195
 40
0.1046142085469195
 40
0.5003577300324199
 40
0.8961804202963073
 40
0.8961804202963073
 40
0.8961804202963073
 40
0.8961804202963073
 10
0.7940017392039097
 20
0.1702041400379335
 30
0.0
 10
1.786393109693747
 20
0.0922923822893174
 30
0.0
 10
3.708883233356054
 20
-0.1551669943016646
 30
0.0
 10
5.471002259444221
 20
-0.5764384447830483
 30
0.0
 10
6.311648315993152
 20
-0.8327465947061587
 30
0.0
  0
LWPOLYLINE
  5
75
330
1F
100
AcDbEntity
  8
0
  6
Continuous
 62
     7
370
    15
100
AcDbPolyline
 90
       17
 70
   128
 43
0.0
 10
0.4628577292
 20
0.5211923464
 10
0.431691594
 20
0.4967154049
 10
0.407421653
 20
0.4706666753
 10
0.3904221705
 20
0.4434478525
 10
0.3809552939
 20
0.4154786754
 10
0.379167011
 20
0.3871904538
 10
0.3850848989
 20
0.3590194178
 10
0.3986176981
 20
0.3313999901
 10
0.4195567209
 20
0.3047580874
 10
0.4475790685
 20
0.2795045518
 10
0.482252611
 20
0.2560288156
 10
0.5230426511
 20
0.2346928959
 10
0.5693201695
 20
0.2158258119
 10
0.620371525
 20
0.1997185111
 10
0.6754094597
 20
0.1866193825
 10
0.7335852388
 20
0.1767304266
 10
0.7940017392
 20
0.17020414
  0
LWPOLYLINE
  5
76
330
1F
100
AcDbEntity
  8
0
  6
Continuous
 62
     7
370
    15
100
AcDbPolyline
 90
       27
 70
   128
 43
0.0
 10
4.8256720209
 20
1.1245269072
 10
4.85480528
 20
1.1210167762
 10
4.8849351984
 20
1.1207864231
 10
4.9143107346
 20
1.1238492351
 10
4.9412246895
 20
1.1300272129
 10
4.9641129216
 20
1.1389613147
 10
4.9816452502
 20
1.1501323231
 10
4.99280276
 20
1.1628910196
 10
4.9969370172
 20
1.1764959152
 10
4.9938077537
 20
1.1901563427
 10
4.9835968309
 20
1.2030784079
 10
4.9668976706
 20
1.2145111272
 10
4.9446807673
 20
1.2237900726
 10
4.9182372866
 20
1.2303759855
 10
4.8891040276
 20
1.2338861165
 10
4.8589741092
 20
1.2341164696
 10
4.8295985729
 20
1.2310536575
 10
4.8026846181
 20
1.2248756798
 10
4.779796386
 20
1.2159415779
 10
4.7622640574
 20
1.2047705696
 10
4.7511065476
 20
1.1920118731
 10
4.7469722904
 20
1.1784069775
 10
4.7501015539
 20
1.1647465499
 10
4.7603124767
 20
1.1518244847
 10
4.7770116369
 20
1.1403917654
 10
4.7992285403
 20
1.13111282
 10
4.8256720209
 20
1.1245269072
  0
LWPOLYLINE
  5
77
330
1F
100
AcDbEntity
  8
0
  6
Continuous
 62
     7
370
    15
100
AcDbPolyline
 90
       27
 70
   128
 43
0.0
 10
9.0480356283
 20
1.9521320822
 10
9.0771688874
 20
1.9486219512
 10
9.1072988057
 20
1.9483915981
 10
9.136674342
 20
1.9514544102
 10
9.1635882968
 20
1.9576323879
 10
9.186476529
 20
1.9665664898
 10
9.2040088575
 20
1.9777374981
 10
9.2151663674
 20
1.9904961946
 10
9.2193006245
 20
2.0041010902
 10
9.216171361
 20
2.0177615178
 10
9.2059604383
 20
2.030683583
 10
9.189261278
 20
2.0421163023
 10
9.1670443747
 20
2.0513952477
 10
9.140600894
 20
2.0579811605
 10
9.1114676349
 20
2.0614912915
 10
9.0813377166
 20
2.0617216446
 10
9.0519621803
 20
2.0586588326
 10
9.0250482255
 20
2.0524808548
 10
9.0021599934
 20
2.043546753
 10
8.9846276648
 20
2.0323757446
 10
8.9734701549
 20
2.0196170481
 10
8.9693358978
 20
2.0060121525
 10
8.9724651613
 20
1.9923517249
 10
8.982676084
 20
1.9794296598
 10
8.9993752443
 20
1.9679969404
 10
9.0215921476
 20
1.9587179951
 10
9.0480356283
 20
1.9521320822
  0
LWPOLYLINE
  5
78
330
1F
100
AcDbEntity
  8
0
  6
Continuous
 62
     7
370
    15
100
AcDbPolyline
 90
       27
 70
   128
 43
0.0
 10
6.6413387204
 20
-0.7999439535
 10
6.6704719794
 20
-0.8034540845
 10
6.7006018978
 20
-0.8036844376
 10
6.7299774341
 20
-0.8006216255
 10
6.7568913889
 20
-0.7944436478
 10
6.779779621
 20
-0.7855095459
 10
6.7973119496
 20
-0.7743385376
 10
6.8084694594
 20
-0.7615798411
 10
6.8126037166
 20
-0.7479749455
 10
6.8094744531
 20
-0.7343145179
 10
6.7992635303
 20
-0.7213924527
 10
6.78256437
 20
-0.7099597334
 10
6.7603474667
 20
-0.700680788
 10
6.733903986
 20
-0.6940948752
 10
6.704770727
 20
-0.6905847442
 10
6.6746408086
 20
-0.6903543911
 10
6.6452652723
 20
-0.6934172031
 10
6.6183513175
 20
-0.6995951809
 10
6.5954630854
 20
-0.7085292827
 10
6.5779307568
 20
-0.7197002911
 10
6.566773247
 20
-0.7324589876
 10
6.5626389898
 20
-0.7460638832
 10
6.5657682533
 20
-0.7597243108
 10
6.5759791761
 20
-0.7726463759
 10
6.5926783364
 20
-0.7840790953
 10
6.6148952397
 20
-0.7933580406
 10
6.6413387204
 20
-0.7999439535
  0
LWPOLYLINE
  5
79
330
1F
100
AcDbEntity
  8
0
  6
Continuous
 62
     7
370
    15
100
AcDbPolyline
 90
       27
 70
   128
 43
0.0
 10
0.6033084136
 20
0.2969217321
 10
0.6324416727
 20
0.2934116011
 10
0.662571591
 20
0.293181248
 10
0.6919471273
 20
0.2962440601
 10
0.7188610821
 20
0.3024220378
 10
0.7417493142
 20
0.3113561397
 10
0.7592816428
 20
0.322527148
 10
0.7704391526
 20
0.3352858445
 10
0.7745734098
 20
0.3488907401
 10
0.7714441463
 20
0.3625511677
 10
0.7612332235
 20
0.3754732329
 10
0.7445340633
 20
0.3869059522
 10
0.72231716
 20
0.3961848976
 10
0.6958736793
 20
0.4027708104
 10
0.6667404202
 20
0.4062809414
 10
0.6366105018
 20
0.4065112945
 10
0.6072349656
 20
0.4034484825
 10
0.5803210108
 20
0.3972705047
 10
0.5574327786
 20
0.3883364029
 10
0.53990045
 20
0.3771653945
 10
0.5287429402
 20
0.364406698
 10
0.524608683
 20
0.3508018024
 10
0.5277379465
 20
0.3371413748
 10
0.5379488693
 20
0.3242193097
 10
0.5546480296
 20
0.3127865903
 10
0.5768649329
 20
0.303507645
 10
0.6033084136
 20
0.2969217321
  0
LWPOLYLINE
  5
7A
330
1F
100
AcDbEntity
  8
0
  6
Continuous
 62
     7
370
    15
100
AcDbPolyline
 90
       27
 70
   128
 43
0.0
 10
3.0100053215
 20
3.0489977678
 10
3.0391385806
 20
3.0454876368
 10
3.069268499
 20
3.0452572837
 10
3.0986440352
 20
3.0483200958
 10
3.1255579901
 20
3.0544980735
 10
3.1484462222
 20
3.0634321754
 10
3.1659785508
 20
3.0746031837
 10
3.1771360606
 20
3.0873618802
 10
3.1812703178
 20
3.1009667758
 10
3.1781410543
 20
3.1146272034
 10
3.1679301315
 20
3.1275492686
 10
3.1512309712
 20
3.1389819879
 10
3.1290140679
 20
3.1482609333
 10
3.1025705872
 20
3.1548468461
 10
3.0734373282
 20
3.1583569771
 10
3.0433074098
 20
3.1585873302
 10
3.0139318735
 20
3.1555245182
 10
2.9870179187
 20
3.1493465404
 10
2.9641296866
 20
3.1404124386
 10
2.946597358
 20
3.1292414302
 10
2.9354398482
 20
3.1164827337
 10
2.931305591
 20
3.1028778381
 10
2.9344348545
 20
3.0892174106
 10
2.9446457773
 20
3.0762953454
 10
2.9613449375
 20
3.064862626
 10
2.9835618409
 20
3.0555836807
 10
3.0100053215
 20
3.0489977678
  0
LWPOLYLINE
  5
7D
330
1F
100
AcDbEntity
  8
0
  6
Continuous
 62
     7
370
    15
100
AcDbPolyline
 90
       17
 70
   128
 43
0.0
 10
7.0824037855
 20
-0.904536952
 10
7.0680679888
 20
-0.9320958042
 10
7.0463428999
 20
-0.9586314258
 10
7.0175640782
 20
-0.9837339554
 10
6.9821760329
 20
-1.0070156667
 10
6.9407253572
 20
-1.0281169572
 10
6.8938522862
 20
-1.0467119027
 10
6.8422808074
 20
-1.062513291
 10
6.7868074787
 20
-1.0752770586
 10
6.7282891249
 20
-1.0848060602
 10
6.6676296031
 20
-1.0909531134
 10
6.6057658425
 20
-1.0936232728
 10
6.5436533725
 20
-1.0927752959
 10
6.482251564
 20
-1.0884222803
 10
6.4225088112
 20
-1.0806314614
 10
6.3653478832
 20
-1.0695231738
 10
6.3116516707
 20
-1.0552689929
  0
SPLINE
  5
7F
330
1F
100
AcDbEntity
  8
0
  6
Continuous
 62
     7
370
    15
100
AcDbSpline
210
0.0
220
0.0
230
1.0
 70
     8
 71
     3
 72
     9
 73
     5
 74
     0
 42
0.00000001
 43
0.00000001
 12
1.0
 22
0.0
 32
0.0
 13
1.0
 23
0.0
 33
0.0
 40
0.1046142085469195
 40
0.1046142085469195
 40
0.1046142085469195
 40
0.1046142085469195
 40
0.5003577300324199
 40
0.8961804202963073
 40
0.8961804202963073
 40
0.8961804202963073
 40
0.8961804202963073
 10
0.7940050939187577
 20
-0.0523182581480931
 30
0.0
 10
1.786396464408595
 20
-0.1302300158967092
 30
0.0
 10
3.708886588070902
 20
-0.3776893924876911
 30
0.0
 10
5.471005614159069
 20
-0.7989608429690749
 30
0.0
 10
6.311651670708
 20
-1.055268992892185
 30
0.0
  0
SPLINE
  5
81
330
1F
100
AcDbEntity
  8
0
  6
Continuous
 62
     7
370
    15
100
AcDbSpline
210
0.0
220
0.0
230
1.0
 70
     8
 71
     3
 72
     9
 73
     5
 74
     0
 42
0.00000001
 43
0.00000001
 12
1.0
 22
0.0
 32
0.0
 13
1.0
 23
0.0
 33
0.0
 40
0.1044844961748195
 40
0.1044844961748195
 40
0.1044844961748195
 40
0.1044844961748195
 40
0.5002943913825674
 40
0.8961804202963075
 40
0.8961804202963075
 40
0.8961804202963075
 40
0.8961804202963075
 10
9.281604950386846
 20
1.611563217602893
 30
0.0
 10
8.722880400204343
 20
1.229604241879947
 30
0.0
 10
7.793285876472792
 20
0.4231145271825552
 30
0.0
 10
7.254158010452347
 20
-0.4501715467190033
 30
0.0
 10
7.08240378549665
 20
-0.9045369519664402
 30
0.0
  0
LWPOLYLINE
  5
82
330
1F
100
AcDbEntity
  8
0
  6
Continuous
 62
     7
370
    15
100
AcDbPolyline
 90
       13
 70
   128
 43
0.0
 10
0.3788927492
 20
0.1722596538
 10
0.3791703658
 20
0.1646680556
 10
0.3850882536
 20
0.1364970196
 10
0.3986210529
 20
0.108877592
 10
0.4195600756
 20
0.0822356892
 10
0.4475824232
 20
0.0569821536
 10
0.4822559658
 20
0.0335064174
 10
0.5230460058
 20
0.0121704977
 10
0.5693235242
 20
-0.0066965863
 10
0.6203748797
 20
-0.0228038871
 10
0.6754128144
 20
-0.0359030157
 10
0.7335885935
 20
-0.0457919716
 10
0.7940050939
 20
-0.0523182581
  0
LINE
  5
84
330
1F
100
AcDbEntity
  8
0
  6
Continuous
 62
     7
370
    15
100
AcDbLine
 10
0.3788893945
 20
0.394782052
 30
0.0
 11
0.3788927492
 21
0.1722596538
 31
0.0
  0
LINE
  5
85
330
1F
100
AcDbEntity
  8
0
  6
Continuous
 62
     7
370
    15
100
AcDbLine
 10
9.3655917368
 20
1.737986127
 30
0.0
 11
9.365588382
 21
1.9605085252
 31
0.0
  0
LINE
  5
86
330
1F
100
AcDbEntity
  8
0
  6
Continuous
 62
     7
370
    15
100
AcDbLine
 10
6.311648316
 20
-0.8327465947
 30
0.0
 11
6.3116516707
 21
-1.0552689929
 31
0.0
  0
LINE
  5
87
330
1F
100
AcDbEntity
  8
0
  6
Continuous
 62
     7
370
    15
100
AcDbLine
 10
7.0824004308
 20
-0.6820145538
 30
0.0
 11
7.0824037855
 21
-0.904536952
 31
0.0
  0
LINE
  5
88
330
1F
100
AcDbEntity
  8
0
  6
Continuous
 62
     7
370
    15
100
AcDbLine
 10
0.7940017392
 20
0.17020414
 30
0.0
 11
0.7940050939
 21
-0.0523182581
 31
0.0
  0
LINE
  5
89
330
1F
100
AcDbEntity
  8
0
  6
Continuous
 62
     7
370
    15
100
AcDbLine
 10
9.2816015957
 20
1.8340856158
 30
0.0
 11
9.2816049504
 21
1.6115632176
 31
0.0
  0
ARC
  5
8A
330
1F
100
AcDbEntity
  8
0
  6
Continuous
 62
     7
370
    15
100
AcDbCircle
 10
9.2023982245
 20
1.7552917918
 30
0.0
 40
0.1641085265116855
100
AcDbArc
 50
298.858519761
 51
353.9467586864
  0
ENDSEC
  0
SECTION
  2
OBJECTS
  0
DICTIONARY
  5
C
330
0
100
AcDbDictionary
281
     1
  3
ACAD_GROUP
350
D
  3
ACAD_LAYOUT
350
1A
  3
ACAD_MLINESTYLE
350
17
  3
ACAD_PLOTSETTINGS
350
19
  3
ACAD_PLOTSTYLENAME
350
E
  3
ACAD_SCALELIST
350
8B
  3
AcDbVariableDictionary
350
AD
  0
DICTIONARY
  5
D
102
{ACAD_REACTORS
330
C
102
}
330
C
100
AcDbDictionary
281
     1
  0
DICTIONARY
  5
1A
102
{ACAD_REACTORS
330
C
102
}
330
C
100
AcDbDictionary
281
     1
  3
Layout1
350
1E
  3
Layout2
350
26
  3
Model
350
22
  0
DICTIONARY
  5
17
102
{ACAD_REACTORS
330
C
102
}
330
C
100
AcDbDictionary
281
     1
  3
Standard
350
18
  0
DICTIONARY
  5
19
102
{ACAD_REACTORS
330
C
102
}
330
C
100
AcDbDictionary
281
     1
  0
ACDBDICTIONARYWDFLT
  5
E
102
{ACAD_REACTORS
330
C
102
}
330
C
100
AcDbDictionary
281
     1
  3
Normal
350
F
100
AcDbDictionaryWithDefault
340
F
  0
DICTIONARY
  5
8B
102
{ACAD_REACTORS
330
C
102
}
330
C
100
AcDbDictionary
281
     1
  3
A0
350
8C
  3
A1
350
8D
  3
A2
350
8E
  3
A3
350
8F
  3
A4
350
90
  3
A5
350
91
  3
A6
350
92
  3
A7
350
93
  3
A8
350
94
  3
A9
350
95
  3
B0
350
96
  3
B1
350
97
  3
B2
350
98
  3
B3
350
99
  3
B4
350
9A
  3
B5
350
9B
  3
B6
350
9C
  3
B7
350
9D
  3
B8
350
9E
  3
B9
350
9F
  3
C0
350
A0
  3
C1
350
A1
  3
C2
350
A2
  3
C3
350
A3
  3
C4
350
A4
  3
C5
350
A5
  3
C6
350
A6
  3
C7
350
A7
  3
C8
350
A8
  3
C9
350
A9
  3
D0
350
AA
  3
D1
350
AB
  3
D2
350
AC
  0
DICTIONARY
  5
AD
102
{ACAD_REACTORS
330
C
102
}
330
C
100
AcDbDictionary
281
     1
  3
CANNOSCALE
350
AE
  0
LAYOUT
  5
1E
102
{ACAD_REACTORS
330
1A
102
}
330
1A
100
AcDbPlotSettings
  1

  2
none_device
  4

  6

 40
0.0
 41
0.0
 42
0.0
 43
0.0
 44
0.0
 45
0.0
 46
0.0
 47
0.0
 48
0.0
 49
0.0
140
0.0
141
0.0
142
1.0
143
1.0
 70
   688
 72
     0
 73
     0
 74
     5
  7

 75
    16
147
1.0
148
0.0
149
0.0
100
AcDbLayout
  1
Layout1
 70
     1
 71
     1
 10
0.0
 20
0.0
 11
12.0
 21
9.0
 12
0.0
 22
0.0
 32
0.0
 14
1.0000000000E+20
 24
1.0000000000E+20
 34
1.0000000000E+20
 15
-1.0000000000E+20
 25
-1.0000000000E+20
 35
-1.0000000000E+20
146
0.0
 13
0.0
 23
0.0
 33
0.0
 16
1.0
 26
0.0
 36
0.0
 17
0.0
 27
1.0
 37
0.0
 76
     0
330
1B
  0
LAYOUT
  5
26
102
{ACAD_REACTORS
330
1A
102
}
330
1A
100
AcDbPlotSettings
  1

  2
none_device
  4

  6

 40
0.0
 41
0.0
 42
0.0
 43
0.0
 44
0.0
 45
0.0
 46
0.0
 47
0.0
 48
0.0
 49
0.0
140
0.0
141
0.0
142
1.0
143
1.0
 70
   688
 72
     0
 73
     0
 74
     5
  7

 75
    16
147
1.0
148
0.0
149
0.0
100
AcDbLayout
  1
Layout2
 70
     1
 71
     2
 10
0.0
 20
0.0
 11
0.0
 21
0.0
 12
0.0
 22
0.0
 32
0.0
 14
0.0
 24
0.0
 34
0.0
 15
0.0
 25
0.0
 35
0.0
146
0.0
 13
0.0
 23
0.0
 33
0.0
 16
1.0
 26
0.0
 36
0.0
 17
0.0
 27
1.0
 37
0.0
 76
     0
330
23
  0
LAYOUT
  5
22
102
{ACAD_REACTORS
330
1A
102
}
330
1A
100
AcDbPlotSettings
  1

  2
none_device
  4
ANSI_A_(11.00_x_8.50_Inches)
  6

 40
6.35
 41
19.05
 42
6.35000508
 43
19.05000254
 44
279.4
 45
215.9
 46
-4.95300254
 47
61.0826808163
 48
0.0
 49
0.0
140
0.0
141
0.0
142
1.1176204701
143
1.0
 70
  1696
 72
     0
 73
     0
 74
     0
  7

 75
     0
147
0.5913241897
148
0.0
149
0.0
100
AcDbLayout
  1
Model
 70
     1
 71
     0
 10
0.0
 20
0.0
 11
12.0
 21
9.0
 12
0.0
 22
0.0
 32
0.0
 14
0.0
 24
-1.2656142526
 34
0.0
 15
9.743916017
 25
3.2254387652
 35
0.0
146
0.0
 13
0.0
 23
0.0
 33
0.0
 16
1.0
 26
0.0
 36
0.0
 17
0.0
 27
1.0
 37
0.0
 76
     0
330
1F
331
29
  0
MLINESTYLE
  5
18
102
{ACAD_REACTORS
330
17
102
}
330
17
100
AcDbMlineStyle
  2
Standard
 70
     0
  3

 62
   256
 51
90.0
 52
90.0
 71
     2
 49
0.5
 62
   256
  6
BYLAYER
 49
-0.5
 62
   256
  6
BYLAYER
  0
ACDBPLACEHOLDER
  5
F
102
{ACAD_REACTORS
330
E
102
}
330
E
  0
SCALE
  5
8C
102
{ACAD_REACTORS
330
8B
102
}
330
8B
100
AcDbScale
 70
     0
300
1:1
140
1.0
141
1.0
290
     1
  0
SCALE
  5
8D
102
{ACAD_REACTORS
330
8B
102
}
330
8B
100
AcDbScale
 70
     0
300
1:2
140
1.0
141
2.0
290
     0
  0
SCALE
  5
8E
102
{ACAD_REACTORS
330
8B
102
}
330
8B
100
AcDbScale
 70
     0
300
1:4
140
1.0
141
4.0
290
     0
  0
SCALE
  5
8F
102
{ACAD_REACTORS
330
8B
102
}
330
8B
100
AcDbScale
 70
     0
300
1:5
140
1.0
141
5.0
290
     0
  0
SCALE
  5
90
102
{ACAD_REACTORS
330
8B
102
}
330
8B
100
AcDbScale
 70
     0
300
1:8
140
1.0
141
8.0
290
     0
  0
SCALE
  5
91
102
{ACAD_REACTORS
330
8B
102
}
330
8B
100
AcDbScale
 70
     0
300
1:10
140
1.0
141
10.0
290
     0
  0
SCALE
  5
92
102
{ACAD_REACTORS
330
8B
102
}
330
8B
100
AcDbScale
 70
     0
300
1:16
140
1.0
141
16.0
290
     0
  0
SCALE
  5
93
102
{ACAD_REACTORS
330
8B
102
}
330
8B
100
AcDbScale
 70
     0
300
1:20
140
1.0
141
20.0
290
     0
  0
SCALE
  5
94
102
{ACAD_REACTORS
330
8B
102
}
330
8B
100
AcDbScale
 70
     0
300
1:30
140
1.0
141
30.0
290
     0
  0
SCALE
  5
95
102
{ACAD_REACTORS
330
8B
102
}
330
8B
100
AcDbScale
 70
     0
300
1:40
140
1.0
141
40.0
290
     0
  0
SCALE
  5
96
102
{ACAD_REACTORS
330
8B
102
}
330
8B
100
AcDbScale
 70
     0
300
1:50
140
1.0
141
50.0
290
     0
  0
SCALE
  5
97
102
{ACAD_REACTORS
330
8B
102
}
330
8B
100
AcDbScale
 70
     0
300
1:100
140
1.0
141
100.0
290
     0
  0
SCALE
  5
98
102
{ACAD_REACTORS
330
8B
102
}
330
8B
100
AcDbScale
 70
     0
300
2:1
140
2.0
141
1.0
290
     0
  0
SCALE
  5
99
102
{ACAD_REACTORS
330
8B
102
}
330
8B
100
AcDbScale
 70
     0
300
4:1
140
4.0
141
1.0
290
     0
  0
SCALE
  5
9A
102
{ACAD_REACTORS
330
8B
102
}
330
8B
100
AcDbScale
 70
     0
300
8:1
140
8.0
141
1.0
290
     0
  0
SCALE
  5
9B
102
{ACAD_REACTORS
330
8B
102
}
330
8B
100
AcDbScale
 70
     0
300
10:1
140
10.0
141
1.0
290
     0
  0
SCALE
  5
9C
102
{ACAD_REACTORS
330
8B
102
}
330
8B
100
AcDbScale
 70
     0
300
100:1
140
100.0
141
1.0
290
     0
  0
SCALE
  5
9D
102
{ACAD_REACTORS
330
8B
102
}
330
8B
100
AcDbScale
 70
     0
300
1/128" = 1'-0"
140
0.0078125
141
12.0
290
     0
  0
SCALE
  5
9E
102
{ACAD_REACTORS
330
8B
102
}
330
8B
100
AcDbScale
 70
     0
300
1/64" = 1'-0"
140
0.015625
141
12.0
290
     0
  0
SCALE
  5
9F
102
{ACAD_REACTORS
330
8B
102
}
330
8B
100
AcDbScale
 70
     0
300
1/32" = 1'-0"
140
0.03125
141
12.0
290
     0
  0
SCALE
  5
A0
102
{ACAD_REACTORS
330
8B
102
}
330
8B
100
AcDbScale
 70
     0
300
1/16" = 1'-0"
140
0.0625
141
12.0
290
     0
  0
SCALE
  5
A1
102
{ACAD_REACTORS
330
8B
102
}
330
8B
100
AcDbScale
 70
     0
300
3/32" = 1'-0"
140
0.09375
141
12.0
290
     0
  0
SCALE
  5
A2
102
{ACAD_REACTORS
330
8B
102
}
330
8B
100
AcDbScale
 70
     0
300
1/8" = 1'-0"
140
0.125
141
12.0
290
     0
  0
SCALE
  5
A3
102
{ACAD_REACTORS
330
8B
102
}
330
8B
100
AcDbScale
 70
     0
300
3/16" = 1'-0"
140
0.1875
141
12.0
290
     0
  0
SCALE
  5
A4
102
{ACAD_REACTORS
330
8B
102
}
330
8B
100
AcDbScale
 70
     0
300
1/4" = 1'-0"
140
0.25
141
12.0
290
     0
  0
SCALE
  5
A5
102
{ACAD_REACTORS
330
8B
102
}
330
8B
100
AcDbScale
 70
     0
300
3/8" = 1'-0"
140
0.375
141
12.0
290
     0
  0
SCALE
  5
A6
102
{ACAD_REACTORS
330
8B
102
}
330
8B
100
AcDbScale
 70
     0
300
1/2" = 1'-0"
140
0.5
141
12.0
290
     0
  0
SCALE
  5
A7
102
{ACAD_REACTORS
330
8B
102
}
330
8B
100
AcDbScale
 70
     0
300
3/4" = 1'-0"
140
0.75
141
12.0
290
     0
  0
SCALE
  5
A8
102
{ACAD_REACTORS
330
8B
102
}
330
8B
100
AcDbScale
 70
     0
300
1" = 1'-0"
140
1.0
141
12.0
290
     0
  0
SCALE
  5
A9
102
{ACAD_REACTORS
330
8B
102
}
330
8B
100
AcDbScale
 70
     0
300
1-1/2" = 1'-0"
140
1.5
141
12.0
290
     0
  0
SCALE
  5
AA
102
{ACAD_REACTORS
330
8B
102
}
330
8B
100
AcDbScale
 70
     0
300
3" = 1'-0"
140
3.0
141
12.0
290
     0
  0
SCALE
  5
AB
102
{ACAD_REACTORS
330
8B
102
}
330
8B
100
AcDbScale
 70
     0
300
6" = 1'-0"
140
6.0
141
12.0
290
     0
  0
SCALE
  5
AC
102
{ACAD_REACTORS
330
8B
102
}
330
8B
100
AcDbScale
 70
     0
300
1'-0" = 1'-0"
140
12.0
141
12.0
290
     0
  0
DICTIONARYVAR
  5
AE
102
{ACAD_REACTORS
330
AD
102
}
330
AD
100
DictionaryVariables
280
     0
  1
1:1
  0
ENDSEC
  0
EOF
