  0
SECTION
  2
HEADER
  9
$ACADVER
  1
AC1015
  9
$ACADMAINTVER
 70
     6
  9
$DWGCODEPAGE
  3
ANSI_1252
  9
$INSBASE
 10
0.0
 20
0.0
 30
0.0
  9
$EXTMIN
 10
-2.1116262652
 20
0.1937045318
 30
0.0
  9
$EXTMAX
 10
7.1965988158
 20
6.0782174115
 30
0.0
  9
$LIMMIN
 10
0.0
 20
0.0
  9
$LIMMAX
 10
12.0
 20
9.0
  9
$ORTHOMODE
 70
     0
  9
$REGENMODE
 70
     1
  9
$FILLMODE
 70
     1
  9
$QTEXTMODE
 70
     0
  9
$MIRRTEXT
 70
     1
  9
$LTSCALE
 40
1.0
  9
$ATTMODE
 70
     1
  9
$TEXTSIZE
 40
0.1377952756
  9
$TRACEWID
 40
0.05
  9
$TEXTSTYLE
  7
Standard
  9
$CLAYER
  8
0
  9
$CELTYPE
  6
ByLayer
  9
$CECOLOR
 62
   256
  9
$CELTSCALE
 40
1.0
  9
$DISPSILH
 70
     0
  9
$DIMSCALE
 40
1.0
  9
$DIMASZ
 40
0.13
  9
$DIMEXO
 40
0.0393700787
  9
$DIMDLI
 40
0.38
  9
$DIMRND
 40
0.0
  9
$DIMDLE
 40
0.0
  9
$DIMEXE
 40
0.0393700787
  9
$DIMTP
 40
0.0
  9
$DIMTM
 40
0.0
  9
$DIMTXT
 40
0.1377952756
  9
$DIMCEN
 40
0.09
  9
$DIMTSZ
 40
0.0
  9
$DIMTOL
 70
     0
  9
$DIMLIM
 70
     0
  9
$DIMTIH
 70
     1
  9
$DIMTOH
 70
     1
  9
$DIMSE1
 70
     0
  9
$DIMSE2
 70
     0
  9
$DIMTAD
 70
     1
  9
$DIMZIN
 70
     0
  9
$DIMBLK
  1

  9
$DIMASO
 70
     1
  9
$DIMSHO
 70
     1
  9
$DIMPOST
  1

  9
$DIMAPOST
  1

  9
$DIMALT
 70
     0
  9
$DIMALTD
 70
     2
  9
$DIMALTF
 40
25.4
  9
$DIMLFAC
 40
1.0
  9
$DIMTOFL
 70
     0
  9
$DIMTVP
 40
0.0
  9
$DIMTIX
 70
     0
  9
$DIMSOXD
 70
     0
  9
$DIMSAH
 70
     0
  9
$DIMBLK1
  1

  9
$DIMBLK2
  1

  9
$DIMSTYLE
  2
Standard
  9
$DIMCLRD
 70
     0
  9
$DIMCLRE
 70
     0
  9
$DIMCLRT
 70
     0
  9
$DIMTFAC
 40
1.0
  9
$DIMGAP
 40
0.06
  9
$DIMJUST
 70
     0
  9
$DIMSD1
 70
     0
  9
$DIMSD2
 70
     0
  9
$DIMTOLJ
 70
     1
  9
$DIMTZIN
 70
     0
  9
$DIMALTZ
 70
     0
  9
$DIMALTTZ
 70
     0
  9
$DIMUPT
 70
     0
  9
$DIMDEC
 70
     2
  9
$DIMTDEC
 70
     2
  9
$DIMALTU
 70
     2
  9
$DIMALTTD
 70
     2
  9
$DIMTXSTY
  7
Standard
  9
$DIMAUNIT
 70
     0
  9
$DIMADEC
 70
     2
  9
$DIMALTRND
 40
0.0
  9
$DIMAZIN
 70
     0
  9
$DIMDSEP
 70
    46
  9
$DIMATFIT
 70
     3
  9
$DIMFRAC
 70
     0
  9
$DIMLDRBLK
  1

  9
$DIMLUNIT
 70
     2
  9
$DIMLWD
 70
    -2
  9
$DIMLWE
 70
    -2
  9
$DIMTMOVE
 70
     0
  9
$LUNITS
 70
     2
  9
$LUPREC
 70
     2
  9
$SKETCHINC
 40
0.1
  9
$FILLETRAD
 40
0.5
  9
$AUNITS
 70
     0
  9
$AUPREC
 70
     2
  9
$MENU
  1
.
  9
$ELEVATION
 40
0.0
  9
$PELEVATION
 40
0.0
  9
$THICKNESS
 40
0.0
  9
$LIMCHECK
 70
     0
  9
$CHAMFERA
 40
0.5
  9
$CHAMFERB
 40
0.5
  9
$CHAMFERC
 40
1.0
  9
$CHAMFERD
 40
0.0
  9
$SKPOLY
 70
     0
  9
$TDCREATE
 40
2456840.41247691
  9
$TDUCREATE
 40
2456840.579143576
  9
$TDUPDATE
 40
2456840.41250816
  9
$TDUUPDATE
 40
2456840.579174826
  9
$TDINDWG
 40
0.0000000116
  9
$TDUSRTIMER
 40
0.0000000116
  9
$USRTIMER
 70
     1
  9
$ANGBASE
 50
0.0
  9
$ANGDIR
 70
     0
  9
$PDMODE
 70
     0
  9
$PDSIZE
 40
-1.0
  9
$PLINEWID
 40
0.0
  9
$SPLFRAME
 70
     0
  9
$SPLINETYPE
 70
     6
  9
$SPLINESEGS
 70
     8
  9
$HANDSEED
  5
9E
  9
$SURFTAB1
 70
     6
  9
$SURFTAB2
 70
     6
  9
$SURFTYPE
 70
     6
  9
$SURFU
 70
     6
  9
$SURFV
 70
     6
  9
$UCSBASE
  2

  9
$UCSNAME
  2

  9
$UCSORG
 10
0.0
 20
0.0
 30
0.0
  9
$UCSXDIR
 10
1.0
 20
0.0
 30
0.0
  9
$UCSYDIR
 10
0.0
 20
1.0
 30
0.0
  9
$UCSORTHOREF
  2

  9
$UCSORTHOVIEW
 70
     0
  9
$UCSORGTOP
 10
0.0
 20
0.0
 30
0.0
  9
$UCSORGBOTTOM
 10
0.0
 20
0.0
 30
0.0
  9
$UCSORGLEFT
 10
0.0
 20
0.0
 30
0.0
  9
$UCSORGRIGHT
 10
0.0
 20
0.0
 30
0.0
  9
$UCSORGFRONT
 10
0.0
 20
0.0
 30
0.0
  9
$UCSORGBACK
 10
0.0
 20
0.0
 30
0.0
  9
$PUCSBASE
  2

  9
$PUCSNAME
  2

  9
$PUCSORG
 10
0.0
 20
0.0
 30
0.0
  9
$PUCSXDIR
 10
1.0
 20
0.0
 30
0.0
  9
$PUCSYDIR
 10
0.0
 20
1.0
 30
0.0
  9
$PUCSORTHOREF
  2

  9
$PUCSORTHOVIEW
 70
     0
  9
$PUCSORGTOP
 10
0.0
 20
0.0
 30
0.0
  9
$PUCSORGBOTTOM
 10
0.0
 20
0.0
 30
0.0
  9
$PUCSORGLEFT
 10
0.0
 20
0.0
 30
0.0
  9
$PUCSORGRIGHT
 10
0.0
 20
0.0
 30
0.0
  9
$PUCSORGFRONT
 10
0.0
 20
0.0
 30
0.0
  9
$PUCSORGBACK
 10
0.0
 20
0.0
 30
0.0
  9
$USERI1
 70
     0
  9
$USERI2
 70
     0
  9
$USERI3
 70
     0
  9
$USERI4
 70
     0
  9
$USERI5
 70
     0
  9
$USERR1
 40
0.0
  9
$USERR2
 40
0.0
  9
$USERR3
 40
0.0
  9
$USERR4
 40
0.0
  9
$USERR5
 40
0.0
  9
$WORLDVIEW
 70
     1
  9
$SHADEDGE
 70
     3
  9
$SHADEDIF
 70
    70
  9
$TILEMODE
 70
     1
  9
$MAXACTVP
 70
    64
  9
$PINSBASE
 10
0.0
 20
0.0
 30
0.0
  9
$PLIMCHECK
 70
     0
  9
$PEXTMIN
 10
1.0000000000E+20
 20
1.0000000000E+20
 30
1.0000000000E+20
  9
$PEXTMAX
 10
-1.0000000000E+20
 20
-1.0000000000E+20
 30
-1.0000000000E+20
  9
$PLIMMIN
 10
0.0
 20
0.0
  9
$PLIMMAX
 10
12.0
 20
9.0
  9
$UNITMODE
 70
     0
  9
$VISRETAIN
 70
     1
  9
$PLINEGEN
 70
     0
  9
$PSLTSCALE
 70
     1
  9
$TREEDEPTH
 70
  3020
  9
$CMLSTYLE
  2
Standard
  9
$CMLJUST
 70
     0
  9
$CMLSCALE
 40
1.0
  9
$PROXYGRAPHICS
 70
     1
  9
$MEASUREMENT
 70
     0
  9
$CELWEIGHT
370
    -1
  9
$ENDCAPS
280
     0
  9
$JOINSTYLE
280
     0
  9
$LWDISPLAY
290
     1
  9
$INSUNITS
 70
     1
  9
$HYPERLINKBASE
  1

  9
$STYLESHEET
  1

  9
$XEDIT
290
     1
  9
$CEPSNTYPE
380
     0
  9
$PSTYLEMODE
290
     1
  9
$FINGERPRINTGUID
  2
{A0E787CC-95EB-4217-8623-5D565F503D4A}
  9
$VERSIONGUID
  2
{FAEB1C32-E019-11D5-929B-00C0DF256EC4}
  9
$EXTNAMES
290
     1
  9
$PSVPSCALE
 40
0.0
  9
$OLESTARTUP
290
     0
  0
ENDSEC
  0
SECTION
  2
CLASSES
  0
CLASS
  1
ACDBDICTIONARYWDFLT
  2
AcDbDictionaryWithDefault
  3
ObjectDBX Classes
 90
        0
280
     0
281
     0
  0
CLASS
  1
VISUALSTYLE
  2
AcDbVisualStyle
  3
ObjectDBX Classes
 90
     4095
280
     0
281
     0
  0
CLASS
  1
MATERIAL
  2
AcDbMaterial
  3
ObjectDBX Classes
 90
     1153
280
     0
281
     0
  0
CLASS
  1
SCALE
  2
AcDbScale
  3
ObjectDBX Classes
 90
     1153
280
     0
281
     0
  0
CLASS
  1
DICTIONARYVAR
  2
AcDbDictionaryVar
  3
ObjectDBX Classes
 90
        0
280
     0
281
     0
  0
CLASS
  1
ACDBPLACEHOLDER
  2
AcDbPlaceHolder
  3
ObjectDBX Classes
 90
        0
280
     0
281
     0
  0
CLASS
  1
LAYOUT
  2
AcDbLayout
  3
ObjectDBX Classes
 90
        0
280
     0
281
     0
  0
ENDSEC
  0
SECTION
  2
TABLES
  0
TABLE
  2
VPORT
  5
8
330
0
100
AcDbSymbolTable
 70
     1
  0
VPORT
  5
29
330
8
100
AcDbSymbolTableRecord
100
AcDbViewportTableRecord
  2
*Active
 70
     0
 10
0.0
 20
0.0
 11
1.0
 21
1.0
 12
2.5424862753
 22
3.1359609716
 13
0.0
 23
0.0
 14
0.5
 24
0.5
 15
0.5
 25
0.5
 16
0.0
 26
0.0
 36
1.0
 17
0.0
 27
0.0
 37
0.0
 40
6.0022031373
 41
1.5818174369
 42
50.0
 43
0.0
 44
0.0
 50
0.0
 51
0.0
 71
     0
 72
   100
 73
     1
 74
     3
 75
     0
 76
     0
 77
     0
 78
     0
281
     0
 65
     1
110
0.0
120
0.0
130
0.0
111
1.0
121
0.0
131
0.0
112
0.0
122
1.0
132
0.0
 79
     0
146
0.0
  0
ENDTAB
  0
TABLE
  2
LTYPE
  5
5
330
0
100
AcDbSymbolTable
 70
     6
  0
LTYPE
  5
14
330
5
100
AcDbSymbolTableRecord
100
AcDbLinetypeTableRecord
  2
ByBlock
 70
     0
  3

 72
    65
 73
     0
 40
0.0
  0
LTYPE
  5
15
330
5
100
AcDbSymbolTableRecord
100
AcDbLinetypeTableRecord
  2
ByLayer
 70
     0
  3

 72
    65
 73
     0
 40
0.0
  0
LTYPE
  5
16
330
5
100
AcDbSymbolTableRecord
100
AcDbLinetypeTableRecord
  2
Continuous
 70
     0
  3
Solid line
 72
    65
 73
     0
 40
0.0
  0
LTYPE
  5
3F
330
5
100
AcDbSymbolTableRecord
100
AcDbLinetypeTableRecord
  2
HIDDEN
 70
     0
  3
Hidden __ __ __ __ __ __ __ __ __ __ __ __ __ __
 72
    65
 73
     2
 40
0.075
 49
0.05
 74
     0
 49
-0.025
 74
     0
  0
LTYPE
  5
40
330
5
100
AcDbSymbolTableRecord
100
AcDbLinetypeTableRecord
  2
PHANTOM
 70
     0
  3
Phantom ______  __  __  ______  __  __  ______
 72
    65
 73
     6
 40
0.5
 49
0.25
 74
     0
 49
-0.05
 74
     0
 49
0.05
 74
     0
 49
-0.05
 74
     0
 49
0.05
 74
     0
 49
-0.05
 74
     0
  0
LTYPE
  5
41
330
5
100
AcDbSymbolTableRecord
100
AcDbLinetypeTableRecord
  2
CENTER
 70
     0
  3
Center ____ _ ____ _ ____ _ ____ _ ____ _ ____
 72
    65
 73
     4
 40
0.4
 49
0.25
 74
     0
 49
-0.05
 74
     0
 49
0.05
 74
     0
 49
-0.05
 74
     0
  0
LTYPE
  5
42
330
5
100
AcDbSymbolTableRecord
100
AcDbLinetypeTableRecord
  2
CENTERX2
 70
     0
  3
Center (2x) ________  __  ________  __  _____
 72
    65
 73
     4
 40
0.8
 49
0.5
 74
     0
 49
-0.1
 74
     0
 49
0.1
 74
     0
 49
-0.1
 74
     0
  0
LTYPE
  5
43
330
5
100
AcDbSymbolTableRecord
100
AcDbLinetypeTableRecord
  2
DOT2
 70
     0
  3
Dot (.5x) ........................................
 72
    65
 73
     2
 40
0.025
 49
0.0
 74
     0
 49
-0.025
 74
     0
  0
ENDTAB
  0
TABLE
  2
LAYER
  5
2
330
0
100
AcDbSymbolTable
 70
     1
  0
LAYER
  5
10
330
2
100
AcDbSymbolTableRecord
100
AcDbLayerTableRecord
  2
0
 70
     0
 62
     7
  6
Continuous
370
    -3
390
F
  0
ENDTAB
  0
TABLE
  2
STYLE
  5
3
330
0
100
AcDbSymbolTable
 70
     1
  0
STYLE
  5
11
330
3
100
AcDbSymbolTableRecord
100
AcDbTextStyleTableRecord
  2
Standard
 70
     0
 40
0.0
 41
1.0
 50
0.0
 71
     0
 42
0.1377952756
  3
txt
  4

  0
ENDTAB
  0
TABLE
  2
VIEW
  5
6
330
0
100
AcDbSymbolTable
 70
     0
  0
ENDTAB
  0
TABLE
  2
UCS
  5
7
330
0
100
AcDbSymbolTable
 70
     0
  0
ENDTAB
  0
TABLE
  2
APPID
  5
9
330
0
100
AcDbSymbolTable
 70
     1
  0
APPID
  5
12
330
9
100
AcDbSymbolTableRecord
100
AcDbRegAppTableRecord
  2
ACAD
 70
     0
  0
ENDTAB
  0
TABLE
  2
DIMSTYLE
  5
A
330
0
100
AcDbSymbolTable
 70
     1
100
AcDbDimStyleTable
  0
DIMSTYLE
105
27
330
A
100
AcDbSymbolTableRecord
100
AcDbDimStyleTableRecord
  2
Standard
 70
     0
178
     0
340
11
  0
ENDTAB
  0
TABLE
  2
BLOCK_RECORD
  5
1
330
0
100
AcDbSymbolTable
 70
     1
  0
BLOCK_RECORD
  5
1F
330
1
100
AcDbSymbolTableRecord
100
AcDbBlockTableRecord
  2
*Model_Space
340
22
  0
BLOCK_RECORD
  5
1B
330
1
100
AcDbSymbolTableRecord
100
AcDbBlockTableRecord
  2
*Paper_Space
340
1E
  0
BLOCK_RECORD
  5
23
330
1
100
AcDbSymbolTableRecord
100
AcDbBlockTableRecord
  2
*Paper_Space0
340
26
  0
ENDTAB
  0
ENDSEC
  0
SECTION
  2
BLOCKS
  0
BLOCK
  5
20
330
1F
100
AcDbEntity
  8
0
100
AcDbBlockBegin
  2
*Model_Space
 70
     0
 10
0.0
 20
0.0
 30
0.0
  3
*Model_Space
  1

  0
ENDBLK
  5
21
330
1F
100
AcDbEntity
  8
0
100
AcDbBlockEnd
  0
BLOCK
  5
1C
330
1B
100
AcDbEntity
 67
     1
  8
0
100
AcDbBlockBegin
  2
*Paper_Space
 70
     0
 10
0.0
 20
0.0
 30
0.0
  3
*Paper_Space
  1

  0
ENDBLK
  5
1D
330
1B
100
AcDbEntity
 67
     1
  8
0
100
AcDbBlockEnd
  0
BLOCK
  5
24
330
23
100
AcDbEntity
  8
0
100
AcDbBlockBegin
  2
*Paper_Space0
 70
     0
 10
0.0
 20
0.0
 30
0.0
  3
*Paper_Space0
  1

  0
ENDBLK
  5
25
330
23
100
AcDbEntity
  8
0
100
AcDbBlockEnd
  0
ENDSEC
  0
SECTION
  2
ENTITIES
  0
LWPOLYLINE
  5
44
330
1F
100
AcDbEntity
  8
0
  6
Continuous
 62
     7
100
AcDbPolyline
 90
       17
 70
   128
 43
0.0
 10
4.2301407372
 20
4.9411150193
 10
4.2163159031
 20
4.9499769029
 10
4.1981790106
 20
4.9548196231
 10
4.1784912372
 20
4.9549059196
 10
4.160249868
 20
4.9502226547
 10
4.1462319861
 20
4.9414828129
 10
4.1385716868
 20
4.9300169559
 10
4.1384351814
 20
4.9175706566
 10
4.1458432516
 20
4.9060387511
 10
4.1596680857
 20
4.8971768675
 10
4.1778049782
 20
4.8923341473
 10
4.1974927516
 20
4.8922478508
 10
4.2157341208
 20
4.8969311157
 10
4.2297520027
 20
4.9056709575
 10
4.237412302
 20
4.9171368145
 10
4.2375488074
 20
4.9295831138
 10
4.2301407372
 20
4.9411150193
  0
LWPOLYLINE
  5
45
330
1F
100
AcDbEntity
  8
0
  6
Continuous
 62
     7
100
AcDbPolyline
 90
       17
 70
   128
 43
0.0
 10
-0.3308742134
 20
4.0943527148
 10
-0.343682771
 20
4.102563153
 10
-0.3604864035
 20
4.1070498803
 10
-0.3787269102
 20
4.1071298331
 10
-0.3956273392
 20
4.1027908393
 10
-0.4086147535
 20
4.0946934715
 10
-0.415711937
 20
4.0840704804
 10
-0.4158384077
 20
4.0725391202
 10
-0.4089749118
 20
4.0618549359
 10
-0.3961663541
 20
4.0536444977
 10
-0.3793627216
 20
4.0491577704
 10
-0.361122215
 20
4.0490778176
 10
-0.3442217859
 20
4.0534168114
 10
-0.3312343716
 20
4.0615141792
 10
-0.3241371882
 20
4.0721371703
 10
-0.3240107174
 20
4.0836685305
 10
-0.3308742134
 20
4.0943527148
  0
LINE
  5
46
330
1F
100
AcDbEntity
  8
0
  6
Continuous
 62
     7
100
AcDbLine
 10
-0.8336880646
 20
4.7966280643
 30
0.0
 11
1.1209364025
 21
0.5853180804
 31
0.0
  0
LINE
  5
47
330
1F
100
AcDbEntity
  8
0
  6
Continuous
 62
     7
100
AcDbLine
 10
-0.5819296937
 20
4.8155478503
 30
0.0
 11
1.3489602606
 21
0.6553747434
 31
0.0
  0
LINE
  5
48
330
1F
100
AcDbEntity
  8
0
  6
CENTERX2
 62
     7
100
AcDbLine
 10
1.4866731428
 20
5.4107490248
 30
0.0
 11
3.5982994079
 21
0.8611729184
 31
0.0
  0
LINE
  5
49
330
1F
100
AcDbEntity
  8
0
  6
Continuous
 62
     7
100
AcDbLine
 10
5.9189572997
 20
1.4746546616
 30
0.0
 11
3.9637477949
 21
5.6872251305
 31
0.0
  0
LINE
  5
4A
330
1F
100
AcDbEntity
  8
0
  6
Continuous
 62
     7
100
AcDbLine
 10
3.7357488415
 20
5.6171148096
 30
0.0
 11
5.6671829987
 21
1.4557691976
 31
0.0
  0
LINE
  5
4B
330
1F
100
AcDbEntity
  8
0
  6
CENTERX2
 62
     7
100
AcDbLine
 10
-0.6193371369
 20
4.6154723492
 30
0.0
 11
1.2350678157
 21
0.6200889788
 31
0.0
  0
LINE
  5
4C
330
1F
100
AcDbEntity
  8
0
  6
CENTERX2
 62
     7
100
AcDbLine
 10
3.9385087798
 20
5.4609323056
 30
0.0
 11
5.7934649871
 21
1.4655902779
 31
0.0
  0
LINE
  5
4D
330
1F
100
AcDbEntity
  8
0
  6
Continuous
 62
     7
100
AcDbLine
 10
-0.8336880646
 20
4.7966280643
 30
0.0
 11
-0.8347886084
 21
4.7989992262
 31
0.0
  0
LINE
  5
4E
330
1F
100
AcDbEntity
  8
0
  6
Continuous
 62
     7
100
AcDbLine
 10
-0.7714180449
 20
4.6624650267
 30
0.0
 11
-0.5315314177
 21
4.7069629191
 31
0.0
  0
LINE
  5
4F
330
1F
100
AcDbEntity
  8
0
  6
Continuous
 62
     7
100
AcDbLine
 10
3.7864278718
 20
5.5079249831
 30
0.0
 11
4.026314499
 21
5.5524228755
 31
0.0
  0
LWPOLYLINE
  5
50
330
1F
100
AcDbEntity
  8
0
  6
Continuous
 62
     7
100
AcDbPolyline
 90
        6
 70
   128
 43
0.0
 10
-2.1116262652
 20
4.7432806382
 10
-0.6827700083
 20
4.8082750346
 10
0.7068444117
 20
4.9578174054
 10
2.0572169948
 20
5.1919077505
 10
3.5983488291
 20
5.5763427187
 10
5.0849725507
 20
6.0782174115
  0
LWPOLYLINE
  5
51
330
1F
100
AcDbEntity
  8
0
  6
Continuous
 62
     7
100
AcDbPolyline
 90
        6
 70
   128
 43
0.0
 10
-2.1116262652
 20
4.7432806382
 10
-1.4260950624
 20
3.948072583
 10
-0.8743033198
 20
3.1280564583
 10
-0.4562510371
 20
2.2832322642
 10
-0.1352414165
 20
1.2556979819
 10
0.0
 20
0.1937045318
  0
LWPOLYLINE
  5
52
330
1F
100
AcDbEntity
  8
0
  6
Continuous
 62
     7
100
AcDbPolyline
 90
        6
 70
   128
 43
0.0
 10
0.0
 20
0.1937045318
 10
1.2578739677
 20
0.6270865307
 10
2.5549897723
 20
0.9759205553
 10
3.8913474137
 20
1.2402066055
 10
5.5167190585
 20
1.4431438175
 10
7.1965988158
 20
1.528641305
  0
LWPOLYLINE
  5
53
330
1F
100
AcDbEntity
  8
0
  6
Continuous
 62
     7
100
AcDbPolyline
 90
        6
 70
   128
 43
0.0
 10
5.0849688399
 20
6.0782167231
 10
5.1877818203
 20
5.1749170536
 10
5.4243305499
 20
4.2964247652
 10
5.7946187396
 20
3.4427405463
 10
6.4027246757
 20
2.4684613417
 10
7.1965988158
 20
1.528641305
  0
LWPOLYLINE
  5
54
330
1F
100
AcDbEntity
  8
0
  6
Continuous
 62
     7
100
AcDbPolyline
 90
        3
 70
   128
 43
0.0
 10
3.7357449721
 20
5.6171140919
 10
3.8636644249
 20
5.6560696556
 10
3.9637477949
 20
5.6872251305
  0
LWPOLYLINE
  5
55
330
1F
100
AcDbEntity
  8
0
  6
Continuous
 62
     7
100
AcDbPolyline
 90
        3
 70
   128
 43
0.0
 10
5.6671791294
 20
1.4557684798
 10
5.8081130013
 20
1.4666840009
 10
5.9189572997
 20
1.4746546616
  0
POINT
  5
56
330
1F
100
AcDbEntity
  8
0
  6
Continuous
 62
     7
100
AcDbPoint
 10
-1.4910779264
 20
4.5289713493
 30
0.0
  0
POINT
  5
57
330
1F
100
AcDbEntity
  8
0
  6
Continuous
 62
     7
100
AcDbPoint
 10
0.33899817
 20
0.5860053904
 30
0.0
  0
POINT
  5
58
330
1F
100
AcDbEntity
  8
0
  6
Continuous
 62
     7
100
AcDbPoint
 10
6.5760504771
 20
1.7429505939
 30
0.0
  0
POINT
  5
59
330
1F
100
AcDbEntity
  8
0
  6
Continuous
 62
     7
100
AcDbPoint
 10
4.7459743806
 20
5.6859165528
 30
0.0
  0
POINT
  5
5A
330
1F
100
AcDbEntity
  8
0
  6
Continuous
 62
     7
100
AcDbPoint
 10
0.263563317
 20
2.7132309934
 30
0.0
  0
POINT
  5
5B
330
1F
100
AcDbEntity
  8
0
  6
Continuous
 62
     7
100
AcDbPoint
 10
4.8216592945
 20
3.558737335
 30
0.0
  0
SPLINE
  5
5E
330
1F
100
AcDbEntity
  8
0
  6
Continuous
 62
     7
370
    15
100
AcDbSpline
210
0.0
220
0.0
230
1.0
 70
     8
 71
     3
 72
     9
 73
     5
 74
     0
 42
0.00000001
 43
0.00000001
 12
1.0
 22
0.0
 32
0.0
 13
1.0
 23
0.0
 33
0.0
 40
0.103948731668706
 40
0.103948731668706
 40
0.103948731668706
 40
0.103948731668706
 40
0.4997049642957373
 40
0.8953851219400528
 40
0.8953851219400528
 40
0.8953851219400528
 40
0.8953851219400528
 10
-1.713374558292616
 20
4.303515449721432
 30
0.0
 10
-1.234279356534711
 20
3.740538890478062
 30
0.0
 10
-0.4765283817302263
 20
2.57749159178848
 30
0.0
 10
-0.1170381735325309
 20
1.334893880213987
 30
0.0
 10
-0.0398686537376964
 20
0.7002552326122741
 30
0.0
  0
LWPOLYLINE
  5
5F
330
1F
100
AcDbEntity
  8
0
  6
Continuous
 62
     7
370
    15
100
AcDbPolyline
 90
       17
 70
   128
 43
0.0
 10
-1.7133745583
 20
4.3035154497
 10
-1.7393347358
 20
4.3391626654
 10
-1.7581076993
 20
4.3765687656
 10
-1.7694040849
 20
4.4151571774
 10
-1.7730497713
 20
4.4543331039
 10
-1.7689885646
 20
4.4934926923
 10
-1.7572830636
 20
4.5320323418
 10
-1.7381136954
 20
4.5693580071
 10
-1.7117759342
 20
4.604894355
 10
-1.678675747
 20
4.6380936329
 10
-1.6393233358
 20
4.6684441112
 10
-1.5943252736
 20
4.6954779716
 10
-1.544375155
 20
4.7187785176
 10
-1.4902429047
 20
4.7379865975
 10
-1.4327629103
 20
4.7528061404
 10
-1.3728211613
 20
4.7630087197
 10
-1.3113415919
 20
4.7684370742
  0
SPLINE
  5
60
330
1F
100
AcDbEntity
  8
0
  6
Continuous
 62
     7
370
    15
100
AcDbSpline
210
0.0
220
0.0
230
1.0
 70
     8
 71
     3
 72
     9
 73
     5
 74
     0
 42
0.00000001
 43
0.00000001
 12
1.0
 22
0.0
 32
0.0
 13
1.0
 23
0.0
 33
0.0
 40
0.1044853266368139
 40
0.1044853266368139
 40
0.1044853266368139
 40
0.1044853266368139
 40
0.5002954238385606
 40
0.8960514300890737
 40
0.8960514300890737
 40
0.8960514300890737
 40
0.8960514300890737
 10
-1.311341591947416
 20
4.768437074233499
 30
0.0
 10
-0.3071135393434867
 20
4.817196351363505
 30
0.0
 10
1.658783251794637
 20
5.044454933408356
 30
0.0
 10
3.498819794723561
 20
5.523573045721061
 30
0.0
 10
4.389345399301662
 20
5.826449343847591
 30
0.0
  0
LWPOLYLINE
  5
61
330
1F
100
AcDbEntity
  8
0
  6
Continuous
 62
     7
370
    15
100
AcDbPolyline
 90
       17
 70
   128
 43
0.0
 10
4.3893453993
 20
5.8264493438
 10
4.4457327695
 20
5.8428609573
 10
4.5049023731
 20
5.8547289302
 10
4.5659421781
 20
5.8618703311
 10
4.6279113249
 20
5.8641750836
 10
4.6898546295
 20
5.8616076625
 10
4.7508173063
 20
5.8542076415
 10
4.8098596846
 20
5.8420890838
 10
4.8660716934
 20
5.8254387831
 10
4.9185868882
 20
5.8045133848
 10
4.9665958069
 20
5.7796354303
 10
5.0093584466
 20
5.7511883849
 10
5.0462156696
 20
5.7196107277
 10
5.0765993638
 20
5.6853891922
 10
5.1000411989
 20
5.6490512648
 10
5.1161798456
 20
5.6111570532
 10
5.1247665452
 20
5.5722906538
  0
SPLINE
  5
62
330
1F
100
AcDbEntity
  8
0
  6
Continuous
 62
     7
370
    15
100
AcDbSpline
210
0.0
220
0.0
230
1.0
 70
     8
 71
     3
 72
     9
 73
     5
 74
     0
 42
0.00000001
 43
0.00000001
 12
1.0
 22
0.0
 32
0.0
 13
1.0
 23
0.0
 33
0.0
 40
0.1044844961748195
 40
0.1044844961748195
 40
0.1044844961748195
 40
0.1044844961748195
 40
0.5002943913825674
 40
0.8961804202963075
 40
0.8961804202963075
 40
0.8961804202963075
 40
0.8961804202963075
 10
5.124766545152118
 20
5.57229065383023
 30
0.0
 10
5.20189576299517
 20
4.937430767053892
 30
0.0
 10
5.56163110247272
 20
3.694484814967649
 30
0.0
 10
6.319106617779637
 20
2.530871040495167
 30
0.0
 10
6.798816187925867
 20
1.967855330423391
 30
0.0
  0
LWPOLYLINE
  5
63
330
1F
100
AcDbEntity
  8
0
  6
Continuous
 62
     7
370
    15
100
AcDbPolyline
 90
       17
 70
   128
 43
0.0
 10
6.7988161879
 20
1.9678553304
 10
6.8248280848
 20
1.9321785841
 10
6.8436389778
 20
1.8947376025
 10
6.8549583194
 20
1.8561106878
 10
6.8586112743
 20
1.8168944601
 10
6.8545414202
 20
1.7776946416
 10
6.8428116188
 20
1.7391167013
 10
6.8236030451
 20
1.7017565025
 10
6.7972123891
 20
1.6661910999
 10
6.7640472732
 20
1.6329698263
 10
6.7246199558
 20
1.6026058077
 10
6.6795394198
 20
1.5755680377
 10
6.6295019659
 20
1.5522741337
 10
6.5752804577
 20
1.5330838867
 10
6.5177123848
 20
1.5182937033
 10
6.4576869266
 20
1.5081320286
 10
6.3961312187
 20
1.5027558166
  0
SPLINE
  5
64
330
1F
100
AcDbEntity
  8
0
  6
Continuous
 62
     7
370
    15
100
AcDbSpline
210
0.0
220
0.0
230
1.0
 70
     8
 71
     3
 72
     9
 73
     5
 74
     0
 42
0.00000001
 43
0.00000001
 12
1.0
 22
0.0
 32
0.0
 13
1.0
 23
0.0
 33
0.0
 40
0.1046142085469195
 40
0.1046142085469195
 40
0.1046142085469195
 40
0.1046142085469195
 40
0.5003577300324199
 40
0.8961804202963073
 40
0.8961804202963073
 40
0.8961804202963073
 40
0.8961804202963073
 10
0.6957792694683597
 20
0.4461955542651702
 30
0.0
 10
1.582348162977484
 20
0.7481026852252395
 30
0.0
 10
3.430466662286853
 20
1.227585655311699
 30
0.0
 10
5.387576968316752
 20
1.45477933235789
 30
0.0
 10
6.39613121868098
 20
1.502755816649791
 30
0.0
  0
LWPOLYLINE
  5
65
330
1F
100
AcDbEntity
  8
0
  6
Continuous
 62
     7
370
    15
100
AcDbPolyline
 90
       17
 70
   128
 43
0.0
 10
-0.0398686537
 20
0.7002552326
 10
-0.0312750299
 20
0.6613803989
 10
-0.0151261563
 20
0.6234786503
 10
0.0083289366
 20
0.5871344661
 10
0.0387285502
 20
0.5529083065
 10
0.0756038949
 20
0.5213279697
 10
0.1183863197
 20
0.4928804531
 10
0.1664160809
 20
0.4680044431
 10
0.2189525162
 20
0.4470835502
 10
0.2751854663
 20
0.4304403935
 10
0.3342477682
 20
0.4183316255
 10
0.395228628
 20
0.4109439744
 10
0.4571876657
 20
0.4083913645
 10
0.5191694168
 20
0.4107131591
 10
0.580218067
 20
0.4178735543
 10
0.6393921906
 20
0.4297621302
 10
0.6957792695
 20
0.4461955543
  0
LWPOLYLINE
  5
66
330
1F
100
AcDbEntity
  8
0
  6
Continuous
 62
     7
370
    15
100
AcDbPolyline
 90
       27
 70
   128
 43
0.0
 10
4.7811681517
 20
5.6100902844
 10
4.8088497985
 20
5.6176181793
 10
4.8328773545
 20
5.6291153274
 10
4.8518544255
 20
5.6439135563
 10
4.8646781332
 20
5.6611528466
 10
4.8706032103
 20
5.6798313136
 10
4.8692853128
 20
5.6988634325
 10
4.8608010321
 20
5.7171431259
 10
4.8456434438
 20
5.7336080443
 10
4.8246934519
 20
5.7473013066
 10
4.7991685937
 20
5.7574271101
 10
4.7705522811
 20
5.76339698
 10
4.7405075903
 20
5.7648639691
 10
4.7107806095
 20
5.7617428213
 10
4.6830989628
 20
5.7542149264
 10
4.6590714068
 20
5.7427177783
 10
4.6400943358
 20
5.7279195494
 10
4.6272706281
 20
5.710680259
 10
4.621345551
 20
5.6920017921
 10
4.6226634485
 20
5.6729696731
 10
4.6311477292
 20
5.6546899798
 10
4.6463053174
 20
5.6382250614
 10
4.6672553094
 20
5.6245317991
 10
4.6927801676
 20
5.6144059955
 10
4.7213964801
 20
5.6084361257
 10
4.7514411709
 20
5.6069691366
 10
4.7811681517
 20
5.6100902844
  0
LWPOLYLINE
  5
67
330
1F
100
AcDbEntity
  8
0
  6
Continuous
 62
     7
370
    15
100
AcDbPolyline
 90
       27
 70
   128
 43
0.0
 10
6.6112442482
 20
1.6671243255
 10
6.6389258949
 20
1.6746522204
 10
6.6629534509
 20
1.6861493685
 10
6.681930522
 20
1.7009475974
 10
6.6947542297
 20
1.7181868877
 10
6.7006793067
 20
1.7368653547
 10
6.6993614092
 20
1.7558974736
 10
6.6908771286
 20
1.7741771669
 10
6.6757195403
 20
1.7906420854
 10
6.6547695484
 20
1.8043353477
 10
6.6292446901
 20
1.8144611512
 10
6.6006283776
 20
1.8204310211
 10
6.5705836868
 20
1.8218980101
 10
6.540856706
 20
1.8187768624
 10
6.5131750593
 20
1.8112489675
 10
6.4891475033
 20
1.7997518193
 10
6.4701704322
 20
1.7849535905
 10
6.4573467245
 20
1.7677143001
 10
6.4514216475
 20
1.7490358332
 10
6.452739545
 20
1.7300037142
 10
6.4612238256
 20
1.7117240209
 10
6.4763814139
 20
1.6952591025
 10
6.4973314059
 20
1.6815658402
 10
6.5228562641
 20
1.6714400366
 10
6.5514725766
 20
1.6654701668
 10
6.5815172674
 20
1.6640031777
 10
6.6112442482
 20
1.6671243255
  0
LWPOLYLINE
  5
68
330
1F
100
AcDbEntity
  8
0
  6
Continuous
 62
     7
370
    15
100
AcDbPolyline
 90
       27
 70
   128
 43
0.0
 10
0.3741919411
 20
0.510179122
 10
0.4018735879
 20
0.5177070169
 10
0.4259011439
 20
0.529204165
 10
0.4448782149
 20
0.5440023939
 10
0.4577019226
 20
0.5612416842
 10
0.4636269997
 20
0.5799201512
 10
0.4623091022
 20
0.5989522701
 10
0.4538248215
 20
0.6172319634
 10
0.4386672332
 20
0.6336968819
 10
0.4177172413
 20
0.6473901442
 10
0.3921923831
 20
0.6575159477
 10
0.3635760705
 20
0.6634858176
 10
0.3335313798
 20
0.6649528066
 10
0.303804399
 20
0.6618316589
 10
0.2761227522
 20
0.654303764
 10
0.2520951962
 20
0.6428066158
 10
0.2331181252
 20
0.628008387
 10
0.2202944175
 20
0.6107690966
 10
0.2143693404
 20
0.5920906297
 10
0.2156872379
 20
0.5730585107
 10
0.2241715186
 20
0.5547788174
 10
0.2393291069
 20
0.538313899
 10
0.2602790988
 20
0.5246206367
 10
0.285803957
 20
0.5144948331
 10
0.3144202696
 20
0.5085249633
 10
0.3444649603
 20
0.5070579742
 10
0.3741919411
 20
0.510179122
  0
LWPOLYLINE
  5
69
330
1F
100
AcDbEntity
  8
0
  6
Continuous
 62
     7
370
    15
100
AcDbPolyline
 90
       27
 70
   128
 43
0.0
 10
-1.4558841554
 20
4.4531450809
 10
-1.4282025086
 20
4.4606729758
 10
-1.4041749526
 20
4.4721701239
 10
-1.3851978816
 20
4.4869683528
 10
-1.3723741739
 20
4.5042076431
 10
-1.3664490968
 20
4.5228861101
 10
-1.3677669943
 20
4.541918229
 10
-1.376251275
 20
4.5601979224
 10
-1.3914088632
 20
4.5766628408
 10
-1.4123588552
 20
4.5903561031
 10
-1.4378837134
 20
4.6004819066
 10
-1.466500026
 20
4.6064517765
 10
-1.4965447167
 20
4.6079187656
 10
-1.5262716975
 20
4.6047976178
 10
-1.5539533443
 20
4.5972697229
 10
-1.5779809003
 20
4.5857725748
 10
-1.5969579713
 20
4.5709743459
 10
-1.609781679
 20
4.5537350555
 10
-1.6157067561
 20
4.5350565886
 10
-1.6143888586
 20
4.5160244696
 10
-1.6059045779
 20
4.4977447763
 10
-1.5907469896
 20
4.4812798579
 10
-1.5697969977
 20
4.4675865956
 10
-1.5442721395
 20
4.457460792
 10
-1.5156558269
 20
4.4514909222
 10
-1.4856111361
 20
4.4500239331
 10
-1.4558841554
 20
4.4531450809
  0
LWPOLYLINE
  5
6C
330
1F
100
AcDbEntity
  8
0
  6
Continuous
 62
     7
370
    15
100
AcDbPolyline
 90
       17
 70
   128
 43
0.0
 10
-0.0398686537
 20
0.5065507008
 10
-0.0312750299
 20
0.4676758671
 10
-0.0151261563
 20
0.4297741185
 10
0.0083289366
 20
0.3934299344
 10
0.0387285502
 20
0.3592037747
 10
0.0756038949
 20
0.327623438
 10
0.1183863197
 20
0.2991759213
 10
0.1664160809
 20
0.2742999113
 10
0.2189525162
 20
0.2533790184
 10
0.2751854663
 20
0.2367358618
 10
0.3342477682
 20
0.2246270938
 10
0.395228628
 20
0.2172394427
 10
0.4571876657
 20
0.2146868327
 10
0.5191694168
 20
0.2170086274
 10
0.580218067
 20
0.2241690225
 10
0.6393921906
 20
0.2360575984
 10
0.6957792695
 20
0.2524910225
  0
SPLINE
  5
6E
330
1F
100
AcDbEntity
  8
0
  6
Continuous
 62
     7
370
    15
100
AcDbSpline
210
0.0
220
0.0
230
1.0
 70
     8
 71
     3
 72
     9
 73
     5
 74
     0
 42
0.00000001
 43
0.00000001
 12
1.0
 22
0.0
 32
0.0
 13
1.0
 23
0.0
 33
0.0
 40
0.1046142085469195
 40
0.1046142085469195
 40
0.1046142085469195
 40
0.1046142085469195
 40
0.5003577300324199
 40
0.8961804202963073
 40
0.8961804202963073
 40
0.8961804202963073
 40
0.8961804202963073
 10
0.6957792694683599
 20
0.2524910225018081
 30
0.0
 10
1.582348162977484
 20
0.5543981534618779
 30
0.0
 10
3.430466662286853
 20
1.033881123548338
 30
0.0
 10
5.387576968316752
 20
1.261074800594528
 30
0.0
 10
6.39613121868098
 20
1.30905128488643
 30
0.0
  0
SPLINE
  5
70
330
1F
100
AcDbEntity
  8
0
  6
Continuous
 62
     7
370
    15
100
AcDbSpline
210
0.0
220
0.0
230
1.0
 70
     8
 71
     3
 72
     9
 73
     5
 74
     0
 42
0.00000001
 43
0.00000001
 12
1.0
 22
0.0
 32
0.0
 13
1.0
 23
0.0
 33
0.0
 40
0.103948731668706
 40
0.103948731668706
 40
0.103948731668706
 40
0.103948731668706
 40
0.4997049642957373
 40
0.8953851219400528
 40
0.8953851219400528
 40
0.8953851219400528
 40
0.8953851219400528
 10
-1.713374558292616
 20
4.109810917958069
 30
0.0
 10
-1.23427935653471
 20
3.546834358714701
 30
0.0
 10
-0.4765283817302263
 20
2.383787060025118
 30
0.0
 10
-0.1170381735325309
 20
1.141189348450625
 30
0.0
 10
-0.0398686537376959
 20
0.5065507008489121
 30
0.0
  0
LWPOLYLINE
  5
71
330
1F
100
AcDbEntity
  8
0
  6
Continuous
 62
     7
370
    15
100
AcDbPolyline
 90
       14
 70
   128
 43
0.0
 10
6.8586140984
 20
1.6242523108
 10
6.8586112743
 20
1.6231899283
 10
6.8545414202
 20
1.5839901099
 10
6.8428116188
 20
1.5454121695
 10
6.8236030451
 20
1.5080519707
 10
6.7972123891
 20
1.4724865682
 10
6.7640472732
 20
1.4392652946
 10
6.7246199558
 20
1.4089012759
 10
6.6795394198
 20
1.3818635059
 10
6.6295019659
 20
1.358569602
 10
6.5752804577
 20
1.3393793549
 10
6.5177123848
 20
1.3245891716
 10
6.4576869266
 20
1.3144274968
 10
6.3961312187
 20
1.3090512849
  0
LINE
  5
73
330
1F
100
AcDbEntity
  8
0
  6
Continuous
 62
     7
370
    15
100
AcDbLine
 10
6.8586140984
 20
1.6242523108
 30
0.0
 11
6.8586140984
 21
1.8179568426
 31
0.0
  0
LINE
  5
74
330
1F
100
AcDbEntity
  8
0
  6
Continuous
 62
     7
370
    15
100
AcDbLine
 10
-1.7730525825
 20
4.4532731467
 30
0.0
 11
-1.7730525825
 21
4.2595686149
 31
0.0
  0
LINE
  5
75
330
1F
100
AcDbEntity
  8
0
  6
Continuous
 62
     7
370
    15
100
AcDbLine
 10
-0.0398686537
 20
0.7002552326
 30
0.0
 11
-0.0398686537
 21
0.5065507008
 31
0.0
  0
LINE
  5
76
330
1F
100
AcDbEntity
  8
0
  6
Continuous
 62
     7
370
    15
100
AcDbLine
 10
0.6957792695
 20
0.4461955543
 30
0.0
 11
0.6957792695
 21
0.2524910225
 31
0.0
  0
LINE
  5
77
330
1F
100
AcDbEntity
  8
0
  6
Continuous
 62
     7
370
    15
100
AcDbLine
 10
6.3961312187
 20
1.5027558166
 30
0.0
 11
6.3961312187
 21
1.3090512849
 31
0.0
  0
LINE
  5
78
330
1F
100
AcDbEntity
  8
0
  6
Continuous
 62
     7
370
    15
100
AcDbLine
 10
-1.7133745583
 20
4.3035154497
 30
0.0
 11
-1.7133745583
 21
4.109810918
 31
0.0
  0
ARC
  5
79
330
1F
100
AcDbEntity
  8
0
  6
Continuous
 62
     7
370
    15
100
AcDbCircle
 10
-1.5418054457
 20
4.264950342
 30
0.0
 40
0.2313097517802075
100
AcDbArc
 50
181.3331823312
 51
222.1211052962
  0
ENDSEC
  0
SECTION
  2
OBJECTS
  0
DICTIONARY
  5
C
330
0
100
AcDbDictionary
281
     1
  3
ACAD_GROUP
350
D
  3
ACAD_LAYOUT
350
1A
  3
ACAD_MLINESTYLE
350
17
  3
ACAD_PLOTSETTINGS
350
19
  3
ACAD_PLOTSTYLENAME
350
E
  3
ACAD_SCALELIST
350
7A
  3
AcDbVariableDictionary
350
9C
  0
DICTIONARY
  5
D
102
{ACAD_REACTORS
330
C
102
}
330
C
100
AcDbDictionary
281
     1
  0
DICTIONARY
  5
1A
102
{ACAD_REACTORS
330
C
102
}
330
C
100
AcDbDictionary
281
     1
  3
Layout1
350
1E
  3
Layout2
350
26
  3
Model
350
22
  0
DICTIONARY
  5
17
102
{ACAD_REACTORS
330
C
102
}
330
C
100
AcDbDictionary
281
     1
  3
Standard
350
18
  0
DICTIONARY
  5
19
102
{ACAD_REACTORS
330
C
102
}
330
C
100
AcDbDictionary
281
     1
  0
ACDBDICTIONARYWDFLT
  5
E
102
{ACAD_REACTORS
330
C
102
}
330
C
100
AcDbDictionary
281
     1
  3
Normal
350
F
100
AcDbDictionaryWithDefault
340
F
  0
DICTIONARY
  5
7A
102
{ACAD_REACTORS
330
C
102
}
330
C
100
AcDbDictionary
281
     1
  3
A0
350
7B
  3
A1
350
7C
  3
A2
350
7D
  3
A3
350
7E
  3
A4
350
7F
  3
A5
350
80
  3
A6
350
81
  3
A7
350
82
  3
A8
350
83
  3
A9
350
84
  3
B0
350
85
  3
B1
350
86
  3
B2
350
87
  3
B3
350
88
  3
B4
350
89
  3
B5
350
8A
  3
B6
350
8B
  3
B7
350
8C
  3
B8
350
8D
  3
B9
350
8E
  3
C0
350
8F
  3
C1
350
90
  3
C2
350
91
  3
C3
350
92
  3
C4
350
93
  3
C5
350
94
  3
C6
350
95
  3
C7
350
96
  3
C8
350
97
  3
C9
350
98
  3
D0
350
99
  3
D1
350
9A
  3
D2
350
9B
  0
DICTIONARY
  5
9C
102
{ACAD_REACTORS
330
C
102
}
330
C
100
AcDbDictionary
281
     1
  3
CANNOSCALE
350
9D
  0
LAYOUT
  5
1E
102
{ACAD_REACTORS
330
1A
102
}
330
1A
100
AcDbPlotSettings
  1

  2
none_device
  4

  6

 40
0.0
 41
0.0
 42
0.0
 43
0.0
 44
0.0
 45
0.0
 46
0.0
 47
0.0
 48
0.0
 49
0.0
140
0.0
141
0.0
142
1.0
143
1.0
 70
   688
 72
     0
 73
     0
 74
     5
  7

 75
    16
147
1.0
148
0.0
149
0.0
100
AcDbLayout
  1
Layout1
 70
     1
 71
     1
 10
0.0
 20
0.0
 11
12.0
 21
9.0
 12
0.0
 22
0.0
 32
0.0
 14
1.0000000000E+20
 24
1.0000000000E+20
 34
1.0000000000E+20
 15
-1.0000000000E+20
 25
-1.0000000000E+20
 35
-1.0000000000E+20
146
0.0
 13
0.0
 23
0.0
 33
0.0
 16
1.0
 26
0.0
 36
0.0
 17
0.0
 27
1.0
 37
0.0
 76
     0
330
1B
  0
LAYOUT
  5
26
102
{ACAD_REACTORS
330
1A
102
}
330
1A
100
AcDbPlotSettings
  1

  2
none_device
  4

  6

 40
0.0
 41
0.0
 42
0.0
 43
0.0
 44
0.0
 45
0.0
 46
0.0
 47
0.0
 48
0.0
 49
0.0
140
0.0
141
0.0
142
1.0
143
1.0
 70
   688
 72
     0
 73
     0
 74
     5
  7

 75
    16
147
1.0
148
0.0
149
0.0
100
AcDbLayout
  1
Layout2
 70
     1
 71
     2
 10
0.0
 20
0.0
 11
0.0
 21
0.0
 12
0.0
 22
0.0
 32
0.0
 14
0.0
 24
0.0
 34
0.0
 15
0.0
 25
0.0
 35
0.0
146
0.0
 13
0.0
 23
0.0
 33
0.0
 16
1.0
 26
0.0
 36
0.0
 17
0.0
 27
1.0
 37
0.0
 76
     0
330
23
  0
LAYOUT
  5
22
102
{ACAD_REACTORS
330
1A
102
}
330
1A
100
AcDbPlotSettings
  1

  2
none_device
  4
ANSI_A_(11.00_x_8.50_Inches)
  6

 40
6.35
 41
19.05
 42
6.35000508
 43
19.05000254
 44
279.4
 45
215.9
 46
57.7967150077
 47
-4.2891552672
 48
0.0
 49
0.0
140
0.0
141
0.0
142
1.1699330329
143
1.0
 70
  1696
 72
     0
 73
     0
 74
     0
  7

 75
     0
147
0.5913241897
148
0.0
149
0.0
100
AcDbLayout
  1
Model
 70
     1
 71
     0
 10
0.0
 20
0.0
 11
12.0
 21
9.0
 12
0.0
 22
0.0
 32
0.0
 14
-2.1116262652
 24
0.1937045318
 34
0.0
 15
7.1965988158
 25
6.0782174115
 35
0.0
146
0.0
 13
0.0
 23
0.0
 33
0.0
 16
1.0
 26
0.0
 36
0.0
 17
0.0
 27
1.0
 37
0.0
 76
     0
330
1F
331
29
  0
MLINESTYLE
  5
18
102
{ACAD_REACTORS
330
17
102
}
330
17
100
AcDbMlineStyle
  2
Standard
 70
     0
  3

 62
   256
 51
90.0
 52
90.0
 71
     2
 49
0.5
 62
   256
  6
BYLAYER
 49
-0.5
 62
   256
  6
BYLAYER
  0
ACDBPLACEHOLDER
  5
F
102
{ACAD_REACTORS
330
E
102
}
330
E
  0
SCALE
  5
7B
102
{ACAD_REACTORS
330
7A
102
}
330
7A
100
AcDbScale
 70
     0
300
1:1
140
1.0
141
1.0
290
     1
  0
SCALE
  5
7C
102
{ACAD_REACTORS
330
7A
102
}
330
7A
100
AcDbScale
 70
     0
300
1:2
140
1.0
141
2.0
290
     0
  0
SCALE
  5
7D
102
{ACAD_REACTORS
330
7A
102
}
330
7A
100
AcDbScale
 70
     0
300
1:4
140
1.0
141
4.0
290
     0
  0
SCALE
  5
7E
102
{ACAD_REACTORS
330
7A
102
}
330
7A
100
AcDbScale
 70
     0
300
1:5
140
1.0
141
5.0
290
     0
  0
SCALE
  5
7F
102
{ACAD_REACTORS
330
7A
102
}
330
7A
100
AcDbScale
 70
     0
300
1:8
140
1.0
141
8.0
290
     0
  0
SCALE
  5
80
102
{ACAD_REACTORS
330
7A
102
}
330
7A
100
AcDbScale
 70
     0
300
1:10
140
1.0
141
10.0
290
     0
  0
SCALE
  5
81
102
{ACAD_REACTORS
330
7A
102
}
330
7A
100
AcDbScale
 70
     0
300
1:16
140
1.0
141
16.0
290
     0
  0
SCALE
  5
82
102
{ACAD_REACTORS
330
7A
102
}
330
7A
100
AcDbScale
 70
     0
300
1:20
140
1.0
141
20.0
290
     0
  0
SCALE
  5
83
102
{ACAD_REACTORS
330
7A
102
}
330
7A
100
AcDbScale
 70
     0
300
1:30
140
1.0
141
30.0
290
     0
  0
SCALE
  5
84
102
{ACAD_REACTORS
330
7A
102
}
330
7A
100
AcDbScale
 70
     0
300
1:40
140
1.0
141
40.0
290
     0
  0
SCALE
  5
85
102
{ACAD_REACTORS
330
7A
102
}
330
7A
100
AcDbScale
 70
     0
300
1:50
140
1.0
141
50.0
290
     0
  0
SCALE
  5
86
102
{ACAD_REACTORS
330
7A
102
}
330
7A
100
AcDbScale
 70
     0
300
1:100
140
1.0
141
100.0
290
     0
  0
SCALE
  5
87
102
{ACAD_REACTORS
330
7A
102
}
330
7A
100
AcDbScale
 70
     0
300
2:1
140
2.0
141
1.0
290
     0
  0
SCALE
  5
88
102
{ACAD_REACTORS
330
7A
102
}
330
7A
100
AcDbScale
 70
     0
300
4:1
140
4.0
141
1.0
290
     0
  0
SCALE
  5
89
102
{ACAD_REACTORS
330
7A
102
}
330
7A
100
AcDbScale
 70
     0
300
8:1
140
8.0
141
1.0
290
     0
  0
SCALE
  5
8A
102
{ACAD_REACTORS
330
7A
102
}
330
7A
100
AcDbScale
 70
     0
300
10:1
140
10.0
141
1.0
290
     0
  0
SCALE
  5
8B
102
{ACAD_REACTORS
330
7A
102
}
330
7A
100
AcDbScale
 70
     0
300
100:1
140
100.0
141
1.0
290
     0
  0
SCALE
  5
8C
102
{ACAD_REACTORS
330
7A
102
}
330
7A
100
AcDbScale
 70
     0
300
1/128" = 1'-0"
140
0.0078125
141
12.0
290
     0
  0
SCALE
  5
8D
102
{ACAD_REACTORS
330
7A
102
}
330
7A
100
AcDbScale
 70
     0
300
1/64" = 1'-0"
140
0.015625
141
12.0
290
     0
  0
SCALE
  5
8E
102
{ACAD_REACTORS
330
7A
102
}
330
7A
100
AcDbScale
 70
     0
300
1/32" = 1'-0"
140
0.03125
141
12.0
290
     0
  0
SCALE
  5
8F
102
{ACAD_REACTORS
330
7A
102
}
330
7A
100
AcDbScale
 70
     0
300
1/16" = 1'-0"
140
0.0625
141
12.0
290
     0
  0
SCALE
  5
90
102
{ACAD_REACTORS
330
7A
102
}
330
7A
100
AcDbScale
 70
     0
300
3/32" = 1'-0"
140
0.09375
141
12.0
290
     0
  0
SCALE
  5
91
102
{ACAD_REACTORS
330
7A
102
}
330
7A
100
AcDbScale
 70
     0
300
1/8" = 1'-0"
140
0.125
141
12.0
290
     0
  0
SCALE
  5
92
102
{ACAD_REACTORS
330
7A
102
}
330
7A
100
AcDbScale
 70
     0
300
3/16" = 1'-0"
140
0.1875
141
12.0
290
     0
  0
SCALE
  5
93
102
{ACAD_REACTORS
330
7A
102
}
330
7A
100
AcDbScale
 70
     0
300
1/4" = 1'-0"
140
0.25
141
12.0
290
     0
  0
SCALE
  5
94
102
{ACAD_REACTORS
330
7A
102
}
330
7A
100
AcDbScale
 70
     0
300
3/8" = 1'-0"
140
0.375
141
12.0
290
     0
  0
SCALE
  5
95
102
{ACAD_REACTORS
330
7A
102
}
330
7A
100
AcDbScale
 70
     0
300
1/2" = 1'-0"
140
0.5
141
12.0
290
     0
  0
SCALE
  5
96
102
{ACAD_REACTORS
330
7A
102
}
330
7A
100
AcDbScale
 70
     0
300
3/4" = 1'-0"
140
0.75
141
12.0
290
     0
  0
SCALE
  5
97
102
{ACAD_REACTORS
330
7A
102
}
330
7A
100
AcDbScale
 70
     0
300
1" = 1'-0"
140
1.0
141
12.0
290
     0
  0
SCALE
  5
98
102
{ACAD_REACTORS
330
7A
102
}
330
7A
100
AcDbScale
 70
     0
300
1-1/2" = 1'-0"
140
1.5
141
12.0
290
     0
  0
SCALE
  5
99
102
{ACAD_REACTORS
330
7A
102
}
330
7A
100
AcDbScale
 70
     0
300
3" = 1'-0"
140
3.0
141
12.0
290
     0
  0
SCALE
  5
9A
102
{ACAD_REACTORS
330
7A
102
}
330
7A
100
AcDbScale
 70
     0
300
6" = 1'-0"
140
6.0
141
12.0
290
     0
  0
SCALE
  5
9B
102
{ACAD_REACTORS
330
7A
102
}
330
7A
100
AcDbScale
 70
     0
300
1'-0" = 1'-0"
140
12.0
141
12.0
290
     0
  0
DICTIONARYVAR
  5
9D
102
{ACAD_REACTORS
330
9C
102
}
330
9C
100
DictionaryVariables
280
     0
  1
1:1
  0
ENDSEC
  0
EOF
